<svg xmlns="http://www.w3.org/2000/svg" width="1200" height="300" viewBox="0 0 1200 300">
<g>
<path d="M 201.95 253.94 C197.60,255.91 195.68,255.95 118.00,255.91 C115.61,255.91 113.29,255.90 111.03,255.90 C42.96,255.87 35.34,255.86 29.96,252.38 C29.11,251.83 28.31,251.18 27.33,250.44 C25.49,249.03 22.97,246.00 21.74,243.69 L 19.50 239.50 L 19.50 85.50 L 21.67 81.50 C22.86,79.30 30.28,71.13 38.17,63.34 C51.18,50.49 53.01,49.04 58.09,47.57 C63.06,46.13 72.20,45.98 140.59,46.23 L 217.50 46.50 L 221.59 48.69 C226.36,51.24 231.66,56.95 233.63,61.65 C234.75,64.34 235.00,78.87 234.98,142.22 C234.96,215.40 234.86,219.71 233.10,223.50 C230.54,229.01 207.70,251.33 201.95,253.94 ZM 48.45 172.73 C48.82,173.70 53.81,174.00 69.47,174.00 L 90.00 174.00 L 90.00 148.82 L 94.25 149.66 C96.59,150.12 103.68,150.48 110.00,150.46 C120.77,150.43 121.93,150.23 128.22,147.28 C136.96,143.19 144.23,136.33 148.01,128.60 C154.17,116.01 152.93,109.22 143.01,101.43 C136.63,96.42 135.00,93.70 135.00,88.09 C135.00,83.15 138.03,79.27 142.54,78.43 C146.59,77.67 146.68,77.25 143.91,71.82 C141.02,66.17 133.48,58.89 127.50,55.99 C122.64,53.63 121.72,53.56 93.79,53.16 C78.00,52.94 63.45,53.07 61.45,53.44 C57.12,54.26 49.31,61.05 49.00,64.28 C48.52,69.21 48.00,171.56 48.45,172.73 ZM 58.76 226.32 C62.97,227.74 72.08,227.90 140.00,227.71 C203.57,227.54 216.92,227.26 219.00,226.09 C220.38,225.32 222.18,224.39 223.00,224.03 C223.82,223.67 225.55,221.38 226.84,218.94 C229.08,214.68 229.16,213.88 228.60,199.18 C228.29,190.75 227.77,183.44 227.45,182.93 C227.11,182.37 191.28,182.00 137.38,182.00 L 47.87 182.00 L 48.19 199.75 C48.50,217.38 48.52,217.53 51.26,221.11 C53.09,223.51 55.61,225.25 58.76,226.32 ZM 129.93 173.25 C129.97,173.66 139.44,174.00 150.97,174.00 L 171.95 174.00 L 172.50 143.50 L 196.05 143.00 C211.96,142.66 220.27,142.94 224.55,138.93 C229.21,134.57 229.10,125.12 228.87,104.24 C228.84,102.34 228.82,100.34 228.80,98.24 C228.51,67.21 228.45,66.41 226.20,62.48 C224.93,60.27 222.26,57.35 220.27,55.98 L 216.65 53.50 L 176.69 53.22 L 136.72 52.93 L 142.39 59.06 C152.21,69.66 157.64,83.65 158.69,101.00 C160.09,124.18 152.11,141.42 135.48,151.14 L 129.59 154.58 L 129.72 163.54 C129.80,168.47 129.89,172.84 129.93,173.25 ZM 596.57 209.25 C592.14,211.53 579.08,212.59 573.50,211.12 C556.36,206.60 547.03,190.88 547.03,166.50 C547.03,145.20 553.44,131.86 566.84,125.28 C571.94,122.78 573.54,122.50 583.00,122.50 C592.61,122.50 593.92,122.73 598.38,125.25 C601.06,126.76 603.65,128.00 604.13,128.00 C604.61,128.00 605.00,119.22 605.00,108.50 L 605.00 89.00 L 623.02 89.00 L 622.50 210.50 L 607.63 210.50 L 606.78 207.25 C605.87,203.73 604.01,203.08 601.94,205.57 C601.22,206.44 598.80,208.09 596.57,209.25 ZM 1066.73 209.05 C1055.87,213.77 1041.37,212.33 1032.65,205.68 C1028.26,202.33 1028.00,202.34 1028.00,205.88 C1028.00,210.10 1026.06,211.14 1018.84,210.80 L 1012.50 210.50 L 1011.98 89.00 L 1030.00 89.00 L 1030.00 129.85 L 1035.62 126.47 C1045.33,120.62 1057.26,120.39 1068.33,125.84 C1078.25,130.72 1083.52,138.52 1086.54,152.77 C1091.71,177.19 1082.99,201.98 1066.73,209.05 ZM 970.96 209.56 C965.01,211.73 950.77,212.35 944.93,210.70 C927.85,205.85 917.71,191.77 916.31,170.94 C914.83,149.08 922.82,132.50 938.27,125.39 C943.94,122.77 945.50,122.51 955.55,122.51 C966.33,122.50 966.79,122.59 974.26,126.29 C986.34,132.25 992.71,141.81 995.01,157.38 C998.58,181.54 988.63,203.13 970.96,209.56 ZM 294.04 168.23 L 293.50 210.50 L 285.45 210.79 C281.03,210.95 277.09,210.76 276.70,210.37 C276.32,209.98 276.00,184.09 276.00,152.83 L 276.00 96.00 L 295.25 96.01 C323.21,96.02 333.11,98.21 340.84,106.09 C353.84,119.36 352.38,145.38 337.90,158.40 C330.16,165.36 324.11,167.24 307.77,167.78 ZM 756.04 168.00 L 755.50 210.50 L 746.75 210.79 L 738.00 211.08 L 738.00 95.79 L 761.25 96.25 C787.73,96.77 791.76,97.58 799.83,103.96 C803.16,106.59 805.74,109.80 807.65,113.69 C810.24,118.98 810.50,120.44 810.47,130.00 C810.44,138.47 810.01,141.58 808.21,146.08 C805.22,153.57 800.36,159.00 793.33,162.71 C785.72,166.72 779.22,168.00 766.47,168.00 ZM 408.68 209.07 C405.05,210.66 401.11,211.42 395.50,211.62 C386.67,211.94 383.45,211.34 377.50,208.26 C368.86,203.78 365.00,196.99 365.00,186.28 C365.00,174.65 367.84,168.66 375.93,163.17 C381.85,159.15 390.51,157.19 406.00,156.37 C412.88,156.00 418.76,155.30 419.09,154.81 C419.41,154.32 419.36,151.90 418.99,149.44 C417.65,140.61 411.32,137.36 397.35,138.33 C391.34,138.74 387.50,139.66 382.74,141.82 L 376.27 144.75 L 373.11 137.63 C373.02,137.42 372.93,137.22 372.84,137.03 C371.33,133.62 370.48,131.73 371.00,130.35 C371.67,128.55 374.64,127.61 381.39,125.28 C388.58,122.82 390.92,122.50 402.00,122.51 C416.54,122.52 421.47,124.13 428.73,131.24 C436.14,138.49 436.50,140.66 436.50,178.00 L 436.50 210.50 L 421.50 210.50 L 421.19 206.75 C420.83,202.46 418.50,201.69 415.58,204.91 C414.63,205.96 411.53,207.83 408.68,209.07 ZM 683.48 209.92 C674.73,213.20 658.84,212.17 653.31,207.97 C644.13,201.01 641.60,196.19 641.55,185.50 C641.51,178.38 641.85,176.89 644.59,172.00 C650.45,161.53 660.16,157.54 683.00,156.22 L 695.50 155.50 L 695.80 151.47 C696.18,146.30 692.85,141.15 688.00,139.41 C680.51,136.72 666.60,138.18 657.88,142.58 L 653.25 144.91 L 650.06 137.97 C648.30,134.16 647.12,130.62 647.44,130.10 C648.17,128.91 660.11,124.38 666.00,123.06 C676.25,120.76 691.83,122.24 699.50,126.26 C703.27,128.23 708.21,133.44 710.64,138.00 C712.35,141.22 712.50,144.27 712.50,176.00 L 712.50 210.50 L 705.74 210.80 L 705.34 210.81 C701.75,210.97 700.11,211.04 699.19,210.27 C698.38,209.58 698.11,208.25 697.56,205.75 C696.82,202.37 695.62,202.30 691.91,205.42 C690.33,206.75 686.53,208.78 683.48,209.92 ZM 1164.44 209.56 C1156.36,211.79 1138.88,212.34 1132.69,210.56 C1114.68,205.38 1104.22,193.02 1102.17,174.50 C1098.61,142.29 1116.36,120.60 1144.95,122.23 C1155.26,122.82 1163.46,126.44 1169.42,133.05 C1176.39,140.76 1180.59,154.35 1179.81,166.64 L 1179.50 171.50 L 1149.75 171.76 C1126.10,171.98 1120.00,172.30 1120.00,173.33 C1120.00,174.05 1120.69,176.98 1121.54,179.83 C1123.64,186.90 1127.87,191.43 1134.81,194.05 C1142.54,196.98 1154.36,196.39 1165.00,192.56 C1169.12,191.07 1173.31,189.60 1174.29,189.30 C1175.93,188.79 1176.06,189.46 1175.79,197.11 C1175.46,206.65 1175.61,206.49 1164.44,209.56 ZM 477.00 181.00 L 476.50 210.50 L 467.95 210.79 C463.25,210.94 459.09,210.76 458.70,210.37 C458.32,209.98 458.00,190.39 458.00,166.83 L 458.00 124.00 L 466.00 124.00 C473.79,124.00 474.00,124.06 474.00,126.42 C474.00,131.67 474.92,132.16 478.85,129.00 C491.98,118.45 516.29,120.13 525.04,132.21 C530.65,139.96 531.06,143.25 530.76,178.56 L 530.50 210.50 L 513.50 210.50 L 513.00 179.00 C512.57,151.98 512.26,147.06 510.82,144.43 C507.95,139.19 506.41,138.50 497.60,138.50 C487.75,138.50 483.70,140.47 480.00,147.05 C477.53,151.45 477.49,151.83 477.00,181.00 ZM 891.80 203.75 L 891.50 210.50 L 858.93 210.76 C841.02,210.91 826.05,210.72 825.68,210.35 C825.31,209.97 825.00,206.84 825.00,203.38 L 825.00 197.09 L 828.25 196.59 C830.04,196.31 835.55,195.73 840.50,195.29 L 849.50 194.50 L 849.77 166.89 L 850.03 139.27 L 838.77 138.39 L 827.50 137.50 L 827.20 130.75 L 826.91 124.00 L 845.84 124.00 C864.62,124.00 864.77,124.02 865.37,126.25 C865.70,127.49 865.98,129.85 865.99,131.50 L 866.00 134.50 L 869.88 130.25 C875.14,124.50 880.86,122.05 889.07,122.02 C895.13,122.00 903.74,123.85 906.77,125.82 C907.78,126.47 907.60,128.10 905.93,133.57 C904.77,137.38 903.44,140.89 902.99,141.37 C902.53,141.85 900.15,141.46 897.61,140.49 C891.79,138.27 883.05,138.83 879.21,141.68 C870.64,148.04 867.84,157.58 868.22,179.13 L 868.50 194.50 L 879.50 195.66 C885.55,196.29 890.86,196.85 891.30,196.91 C891.73,196.96 891.96,200.04 891.80,203.75 ZM 947.50 194.58 C951.43,196.34 960.22,196.36 964.28,194.62 C972.53,191.09 976.13,183.66 976.78,168.79 C977.70,147.87 971.06,138.04 956.00,138.04 C944.99,138.04 938.37,143.52 935.40,155.06 C933.42,162.77 933.97,175.30 936.59,182.08 C938.61,187.31 943.32,192.71 947.50,194.58 ZM 575.52 193.71 C580.50,196.53 588.95,196.78 593.98,194.25 C602.07,190.18 606.26,175.92 604.10,159.84 C602.84,150.52 599.84,143.58 595.79,140.64 C592.36,138.15 583.19,137.29 578.76,139.04 C571.06,142.08 567.32,148.37 565.77,160.87 C563.82,176.58 567.57,189.21 575.52,193.71 ZM 1040.50 193.73 C1047.98,197.91 1058.05,196.29 1063.29,190.07 C1067.70,184.83 1069.26,177.50 1068.81,164.14 C1068.18,145.18 1064.02,139.10 1051.15,138.31 C1041.95,137.74 1037.63,140.24 1033.50,148.50 C1030.65,154.21 1030.50,155.11 1030.50,167.00 C1030.50,178.89 1030.65,179.79 1033.50,185.50 C1035.74,189.98 1037.51,192.07 1040.50,193.73 ZM 294.75 151.45 C295.95,152.71 316.36,151.30 320.10,149.70 C324.15,147.97 328.47,143.58 329.94,139.68 C330.52,138.14 331.00,134.08 331.00,130.67 C331.00,122.56 328.73,118.21 322.96,115.25 C319.12,113.28 317.06,113.00 306.29,113.00 L 294.00 113.00 L 294.00 131.83 C294.00,142.19 294.34,151.02 294.75,151.45 ZM 756.00 113.00 L 756.00 152.28 L 766.97 151.76 C779.59,151.16 786.00,148.77 789.63,143.28 C793.74,137.07 793.58,123.56 789.34,118.79 C785.46,114.43 780.29,113.05 767.75,113.02 ZM 178.82 172.38 C179.11,173.82 181.90,174.00 204.07,174.00 L 229.00 174.00 L 229.00 160.00 C229.00,152.30 228.60,146.00 228.11,146.00 C227.62,146.00 225.26,146.89 222.86,147.98 C219.00,149.73 216.26,149.96 198.81,149.98 L 179.13 150.00 L 178.81 160.38 C178.64,166.09 178.65,171.49 178.82,172.38 ZM 92.10 121.36 C90.22,122.26 88.65,122.95 88.60,122.90 C88.54,122.84 87.05,122.45 85.28,122.03 C77.51,120.18 73.01,114.45 73.00,106.40 C73.00,100.38 76.20,95.20 82.69,90.71 C84.91,89.17 87.54,86.41 88.54,84.56 C90.76,80.43 95.61,78.00 101.63,78.00 C105.49,78.00 106.73,78.53 109.60,81.40 C112.55,84.35 113.00,85.46 113.00,89.74 C113.00,93.87 112.37,95.56 109.13,100.09 C107.01,103.06 104.13,107.75 102.73,110.50 C99.90,116.10 97.12,118.93 92.10,121.36 ZM 184.00 127.00 C182.53,128.47 180.67,129.00 177.00,129.00 L 172.00 129.00 L 172.00 67.00 L 176.37 67.00 C179.27,67.00 181.61,67.69 183.37,69.07 L 186.00 71.15 L 186.00 98.07 C186.00,123.67 185.90,125.10 184.00,127.00 ZM 388.39 195.02 C391.85,196.42 400.60,196.11 405.72,194.40 C411.34,192.53 416.57,187.89 417.93,183.57 C419.47,178.67 420.27,171.28 419.33,170.70 C418.85,170.41 413.01,170.51 406.34,170.94 C388.46,172.08 382.00,175.89 382.00,185.32 C382.00,189.07 385.02,193.66 388.39,195.02 ZM 664.33 194.54 C668.09,196.18 676.06,196.39 681.12,194.98 C690.29,192.44 695.96,185.25 695.98,176.13 L 696.00 170.76 L 683.75 171.22 C665.31,171.92 659.00,175.36 659.00,184.70 C659.00,190.33 660.34,192.81 664.33,194.54 ZM 1121.00 155.12 C1121.00,155.60 1130.00,156.00 1141.00,156.00 L 1161.00 156.00 L 1161.00 153.71 C1161.00,149.41 1156.71,142.63 1152.50,140.27 C1144.64,135.87 1131.13,138.21 1125.89,144.87 C1123.84,147.47 1121.00,153.43 1121.00,155.12 ZM 124.09 136.45 C117.71,139.75 107.58,136.95 104.52,131.04 C102.54,127.21 102.60,125.37 104.72,124.55 C106.33,123.94 107.74,125.08 109.83,128.70 C110.21,129.36 112.10,130.56 114.02,131.36 C117.01,132.61 117.99,132.62 120.76,131.46 C125.89,129.30 127.33,122.87 122.99,121.50 C116.95,119.58 113.87,113.21 117.93,111.04 C120.00,109.93 135.79,109.60 138.42,110.61 C142.37,112.12 139.33,118.77 133.25,121.91 C131.76,122.68 131.00,123.98 131.00,125.79 C130.99,129.51 127.70,134.58 124.09,136.45 ZM 96.00 165.75 L 96.00 174.00 L 123.00 174.00 L 123.00 157.50 L 96.00 157.50 ZM 97.75 98.92 C99.98,100.21 101.00,99.89 102.69,97.34 C103.87,95.56 103.81,94.99 102.21,93.01 C100.64,91.07 100.04,90.91 98.18,91.90 C95.53,93.32 95.27,97.48 97.75,98.92 Z" fill="rgb(3,3,3)"/>
<path d="M 154.42 170.94 C147.66,170.86 141.77,171.01 141.32,171.26 C139.67,172.20 138.00,170.77 138.00,168.42 C138.00,166.40 137.51,166.00 135.00,166.00 C131.63,166.00 131.22,164.53 133.11,159.10 C133.94,156.74 135.00,155.75 137.20,155.31 C138.99,154.95 140.60,153.77 141.25,152.36 C141.84,151.06 142.63,150.00 143.01,150.00 C144.43,150.00 147.96,146.23 148.94,143.67 C149.57,141.99 150.70,141.00 151.98,141.00 C153.46,141.00 154.00,140.34 154.00,138.54 C154.00,137.09 154.83,135.63 156.00,135.00 C157.12,134.40 158.00,132.91 158.00,131.60 C158.00,130.32 159.01,127.98 160.25,126.41 C162.39,123.68 162.50,122.70 162.50,105.50 C162.50,88.30 162.39,87.32 160.25,84.59 C158.90,82.87 158.00,80.34 158.00,78.26 C158.00,76.03 157.12,73.74 155.54,71.86 C154.19,70.26 152.79,67.39 152.43,65.50 C152.08,63.61 150.65,60.92 149.26,59.53 C147.87,58.14 147.13,56.91 147.61,56.81 C149.20,56.46 203.84,56.07 211.24,56.36 C213.91,56.46 215.70,57.28 217.53,59.25 C218.93,60.76 220.43,62.00 220.86,62.00 C221.29,62.00 222.37,64.36 223.28,67.25 C224.62,71.55 224.95,77.69 225.07,101.14 L 225.22 129.78 L 222.86 132.99 C218.71,138.62 217.34,138.90 192.63,139.22 L 170.04 139.50 L 169.09 142.00 C167.63,145.90 167.08,161.74 168.30,164.97 C169.13,167.18 169.07,168.21 168.04,169.46 C166.92,170.80 164.62,171.05 154.42,170.94 ZM 172.32 133.03 C175.08,134.19 178.25,133.68 184.23,131.12 C188.60,129.24 188.92,128.86 188.40,126.24 C188.02,124.37 188.34,122.97 189.30,122.17 C190.48,121.19 190.58,120.09 189.81,116.72 C189.28,114.40 188.98,103.28 189.14,92.00 C189.46,70.27 189.15,68.39 184.71,65.61 C181.05,63.32 165.26,64.78 163.71,67.56 C163.26,68.35 162.25,69.00 161.45,69.00 C160.65,69.00 160.00,69.90 160.00,71.00 C160.00,73.33 161.26,73.59 162.91,71.60 C165.31,68.72 170.43,72.88 168.44,76.09 C167.35,77.86 167.98,128.10 169.12,130.23 C169.68,131.26 171.11,132.53 172.32,133.03 ZM 209.50 64.00 C209.84,64.55 211.22,65.00 212.56,65.00 C213.90,65.00 215.00,64.55 215.00,64.00 C215.00,63.45 213.62,63.00 211.94,63.00 C210.16,63.00 209.14,63.42 209.50,64.00 ZM 143.64 168.31 C144.44,169.11 146.00,168.20 146.00,166.94 C146.00,166.42 145.32,166.00 144.50,166.00 C142.95,166.00 142.51,167.18 143.64,168.31 ZM 161.00 165.00 C161.00,165.55 161.45,166.00 162.00,166.00 C162.55,166.00 163.00,165.55 163.00,165.00 C163.00,164.45 162.55,164.00 162.00,164.00 C161.45,164.00 161.00,164.45 161.00,165.00 ZM 118.00 255.91 C115.61,255.91 113.29,255.90 111.03,255.90 C110.31,255.90 109.60,255.90 108.89,255.90 C111.81,255.90 114.85,255.91 118.00,255.91 Z" fill="rgb(65,136,197)"/>
<path d="M 130.66 164.33 C130.26,163.93 129.93,165.44 129.79,167.55 C129.77,166.31 129.75,164.95 129.72,163.54 L 129.67 159.78 C129.73,160.06 129.80,160.35 129.88,160.66 C130.57,163.21 130.64,163.15 131.84,159.15 C132.82,155.88 133.82,154.68 136.54,153.55 C138.44,152.75 140.00,151.73 140.00,151.29 C140.00,150.84 142.70,147.78 146.00,144.48 C153.53,136.98 156.22,132.49 158.89,122.94 C161.79,112.54 161.85,95.84 159.00,87.74 C157.90,84.61 157.00,81.07 157.00,79.86 C157.00,78.66 155.94,75.84 154.63,73.59 C153.33,71.34 151.74,67.87 151.10,65.89 C150.46,63.90 148.58,61.07 146.93,59.60 C145.28,58.13 144.21,56.48 144.54,55.93 C144.93,55.31 158.06,54.98 180.25,55.04 L 215.34 55.14 L 219.37 58.58 C226.35,64.56 226.40,64.87 226.79,99.17 C227.13,129.80 227.13,129.83 224.81,133.40 C223.54,135.37 221.94,136.98 221.25,136.99 C220.56,136.99 220.00,137.36 220.00,137.80 C220.00,139.90 212.01,140.98 193.00,141.45 C181.73,141.74 172.22,141.97 171.87,141.98 C171.53,141.99 170.67,143.38 169.97,145.06 C169.08,147.22 168.88,151.20 169.30,158.55 C169.78,167.09 169.61,169.24 168.37,170.49 C166.71,172.14 166.03,172.20 145.27,172.40 L 131.03 172.53 L 131.18 168.76 C131.26,166.69 131.03,164.70 130.66,164.33 ZM 154.42 170.94 C164.62,171.05 166.92,170.80 168.04,169.46 C169.07,168.21 169.13,167.18 168.30,164.97 C167.08,161.74 167.63,145.90 169.09,142.00 L 170.04 139.50 L 192.63 139.22 C217.34,138.90 218.71,138.62 222.86,132.99 L 225.22 129.78 L 225.07 101.14 C224.95,77.69 224.62,71.55 223.28,67.25 C222.37,64.36 221.29,62.00 220.86,62.00 C220.43,62.00 218.93,60.76 217.53,59.25 C215.70,57.28 213.91,56.46 211.24,56.36 C203.84,56.07 149.20,56.46 147.61,56.81 C147.13,56.91 147.87,58.14 149.26,59.53 C150.65,60.92 152.08,63.61 152.43,65.50 C152.79,67.39 154.19,70.26 155.54,71.86 C157.12,73.74 158.00,76.03 158.00,78.26 C158.00,80.34 158.90,82.87 160.25,84.59 C162.39,87.32 162.50,88.30 162.50,105.50 C162.50,122.70 162.39,123.68 160.25,126.41 C159.01,127.98 158.00,130.32 158.00,131.60 C158.00,132.91 157.12,134.40 156.00,135.00 C154.83,135.63 154.00,137.09 154.00,138.54 C154.00,140.34 153.46,141.00 151.98,141.00 C150.70,141.00 149.57,141.99 148.94,143.67 C147.96,146.23 144.43,150.00 143.01,150.00 C142.63,150.00 141.84,151.06 141.25,152.36 C140.60,153.77 138.99,154.95 137.20,155.31 C135.00,155.75 133.94,156.74 133.11,159.10 C131.22,164.53 131.63,166.00 135.00,166.00 C137.51,166.00 138.00,166.40 138.00,168.42 C138.00,170.77 139.67,172.20 141.32,171.26 C141.77,171.01 147.66,170.86 154.42,170.94 ZM 172.32 133.03 C171.11,132.53 169.68,131.26 169.12,130.23 C167.98,128.10 167.35,77.86 168.44,76.09 C170.43,72.88 165.31,68.72 162.91,71.60 C161.26,73.59 160.00,73.33 160.00,71.00 C160.00,69.90 160.65,69.00 161.45,69.00 C162.25,69.00 163.26,68.35 163.71,67.56 C165.26,64.78 181.05,63.32 184.71,65.61 C189.15,68.39 189.46,70.27 189.14,92.00 C188.98,103.28 189.28,114.40 189.81,116.72 C190.58,120.09 190.48,121.19 189.30,122.17 C188.34,122.97 188.02,124.37 188.40,126.24 C188.92,128.86 188.60,129.24 184.23,131.12 C178.25,133.68 175.08,134.19 172.32,133.03 ZM 171.27 128.61 C173.22,131.10 173.69,131.21 179.38,130.62 C185.93,129.93 187.60,129.00 186.66,126.54 C186.12,125.15 185.79,125.21 184.02,126.98 C185.89,125.10 186.00,123.59 186.00,98.62 L 186.43 122.50 L 186.98 100.50 C187.29,88.40 187.92,77.72 188.37,76.76 C188.95,75.57 188.38,73.62 186.56,70.51 C184.50,66.99 183.34,66.00 181.31,66.00 C178.79,66.00 178.74,66.02 181.87,68.13 C180.35,67.38 178.51,67.00 176.37,67.00 L 172.00 67.00 L 172.00 98.03 C172.00,73.22 171.74,67.16 170.71,67.56 C169.71,67.94 169.40,74.43 169.31,97.01 C169.20,124.90 169.27,126.08 171.27,128.61 ZM 209.50 64.00 C209.14,63.42 210.16,63.00 211.94,63.00 C213.62,63.00 215.00,63.45 215.00,64.00 C215.00,64.55 213.90,65.00 212.56,65.00 C211.22,65.00 209.84,64.55 209.50,64.00 ZM 143.64 168.31 C142.51,167.18 142.95,166.00 144.50,166.00 C145.32,166.00 146.00,166.42 146.00,166.94 C146.00,168.20 144.44,169.11 143.64,168.31 ZM 161.00 165.00 C161.00,164.45 161.45,164.00 162.00,164.00 C162.55,164.00 163.00,164.45 163.00,165.00 C163.00,165.55 162.55,166.00 162.00,166.00 C161.45,166.00 161.00,165.55 161.00,165.00 ZM 129.62 156.32 L 129.59 154.58 L 135.48 151.14 C131.92,153.22 130.18,154.59 129.62,156.32 ZM 129.93 173.25 C129.93,173.21 129.92,173.15 129.92,173.06 C130.27,173.44 133.60,173.72 139.36,173.87 C133.71,173.74 129.95,173.51 129.93,173.25 ZM 185.50 70.75 L 183.96 69.54 L 185.50 70.58 ZM 152.02 134.66 C148.13,141.44 142.62,146.97 135.53,151.11 C142.62,146.95 148.14,141.43 152.02,134.66 ZM 181.66 128.45 C180.50,128.84 179.03,129.00 177.00,129.00 C179.02,129.00 180.50,128.84 181.66,128.45 Z" fill="rgb(69,136,192)"/>
<path d="M 178.82 172.38 C178.65,171.49 178.64,166.09 178.81,160.38 L 179.13 150.00 L 198.81 149.98 C216.26,149.96 219.00,149.73 222.86,147.98 C225.26,146.89 227.62,146.00 228.11,146.00 C228.60,146.00 229.00,152.30 229.00,160.00 L 229.00 174.00 L 204.07 174.00 C181.90,174.00 179.11,173.82 178.82,172.38 ZM 96.00 165.75 L 96.00 157.50 L 123.00 157.50 L 123.00 174.00 L 96.00 174.00 Z" fill="rgb(70,149,117)"/>
<path d="M 130.66 164.33 C131.03,164.70 131.26,166.69 131.18,168.76 L 131.03 172.53 L 145.27 172.40 C166.03,172.20 166.71,172.14 168.37,170.49 C169.61,169.24 169.78,167.09 169.30,158.55 C168.88,151.20 169.08,147.22 169.97,145.06 C170.67,143.38 171.53,141.99 171.87,141.98 C172.22,141.97 181.73,141.74 193.00,141.45 C212.01,140.98 220.00,139.90 220.00,137.80 C220.00,137.36 220.56,136.99 221.25,136.99 C221.94,136.98 223.54,135.37 224.81,133.40 C227.13,129.83 227.13,129.80 226.79,99.17 C226.40,64.87 226.35,64.56 219.37,58.58 L 215.34 55.14 L 180.25 55.04 C158.06,54.98 144.93,55.31 144.54,55.93 C144.21,56.48 145.28,58.13 146.93,59.60 C148.58,61.07 150.46,63.90 151.10,65.89 C151.74,67.87 153.33,71.34 154.63,73.59 C155.94,75.84 157.00,78.66 157.00,79.86 C157.00,81.07 157.90,84.61 159.00,87.74 C161.85,95.84 161.79,112.54 158.89,122.94 C156.22,132.49 153.53,136.98 146.00,144.48 C142.70,147.78 140.00,150.84 140.00,151.29 C140.00,151.73 138.44,152.75 136.54,153.55 C133.82,154.68 132.82,155.88 131.84,159.15 C130.64,163.15 130.57,163.21 129.88,160.66 C129.80,160.35 129.73,160.06 129.67,159.78 L 129.62 156.32 C130.18,154.59 131.92,153.22 135.48,151.14 C135.50,151.13 135.51,151.12 135.53,151.11 C135.55,151.10 135.56,151.09 135.58,151.08 C142.64,146.94 148.14,141.43 152.01,134.67 L 152.02 134.66 C157.22,125.58 159.49,114.26 158.69,101.00 C157.64,83.65 152.21,69.66 142.39,59.06 L 136.72 52.93 L 176.69 53.22 L 216.65 53.50 L 220.27 55.98 C222.26,57.35 224.93,60.27 226.20,62.48 C228.45,66.41 228.51,67.21 228.80,98.24 C228.82,100.34 228.84,102.34 228.87,104.24 C229.10,125.12 229.21,134.57 224.55,138.93 C220.27,142.94 211.96,142.66 196.05,143.00 L 172.50 143.50 L 171.95 174.00 L 150.97 174.00 C146.69,174.00 142.70,173.95 139.36,173.87 C133.60,173.72 130.27,173.44 129.92,173.06 C129.89,172.39 129.84,170.27 129.79,167.55 C129.93,165.44 130.26,163.93 130.66,164.33 ZM 184.00 127.00 L 184.02 126.98 C185.79,125.21 186.12,125.16 186.66,126.54 C187.60,129.00 185.93,129.93 179.38,130.62 C173.69,131.21 173.22,131.10 171.27,128.61 C169.27,126.08 169.20,124.90 169.31,97.01 C169.40,74.43 169.71,67.94 170.71,67.56 C171.74,67.16 172.00,73.22 172.00,98.03 L 172.00 129.00 L 177.00 129.00 C177.30,129.00 177.59,129.00 177.87,128.99 C179.45,128.95 180.67,128.78 181.66,128.45 C182.60,128.13 183.34,127.66 184.00,127.00 ZM 185.50 70.75 L 185.50 70.58 L 183.96 69.54 L 183.37 69.07 C182.91,68.71 182.41,68.40 181.87,68.13 C178.74,66.02 178.79,66.00 181.31,66.00 C183.34,66.00 184.50,66.99 186.56,70.51 C188.38,73.62 188.95,75.57 188.37,76.76 C187.92,77.72 187.29,88.40 186.98,100.50 L 186.43 122.50 L 186.00 98.62 L 186.00 98.07 L 186.00 71.15 Z" fill="rgb(76,133,181)"/>
<path d="M 241.89 176.25 C241.96,184.82 241.62,190.00 241.00,190.00 C240.36,190.00 240.06,181.86 240.16,167.25 C240.28,149.15 240.47,146.34 241.05,153.50 C241.46,158.45 241.84,168.69 241.89,176.25 Z" fill="rgb(168,168,168)"/>
<path d="M 48.88 67.25 C48.92,65.70 48.96,64.67 49.00,64.28 C49.31,61.05 57.12,54.26 61.45,53.44 C63.45,53.07 78.00,52.94 93.79,53.16 C119.96,53.53 122.41,53.62 126.62,55.57 C120.90,53.24 115.13,53.81 108.62,57.11 C103.98,59.47 102.92,59.75 104.25,58.28 C107.83,54.32 106.92,54.16 83.83,54.75 C58.47,55.39 56.55,55.94 51.04,64.07 ZM 105.01 150.41 C106.82,149.63 105.62,147.45 101.72,143.66 C99.25,141.26 96.68,138.22 96.01,136.90 C95.33,135.58 96.74,136.62 99.14,139.23 C101.54,141.84 106.35,145.54 109.82,147.47 C113.05,149.26 114.72,150.12 116.26,150.38 C114.59,150.44 112.57,150.46 110.00,150.46 C108.36,150.47 106.66,150.45 105.01,150.41 ZM 55.08 173.82 C58.60,173.89 63.27,173.89 68.31,173.81 C81.20,173.60 86.45,173.77 88.58,171.27 C89.69,169.98 89.95,167.96 90.00,164.79 L 90.00 174.00 L 69.47 174.00 C62.99,174.00 58.33,173.95 55.08,173.82 ZM 48.45 172.73 C48.36,172.51 48.31,168.57 48.29,162.31 C48.39,167.93 48.51,171.72 48.64,172.96 C48.54,172.89 48.48,172.81 48.45,172.73 ZM 137.24 141.68 C141.45,138.22 145.04,133.99 147.60,129.40 C145.21,133.95 141.62,138.18 137.24,141.68 ZM 139.01 65.08 C141.08,67.34 142.82,69.70 143.91,71.82 C143.96,71.92 144.01,72.02 144.06,72.11 C142.75,69.87 140.91,67.28 139.01,65.08 ZM 94.25 149.66 L 90.00 148.82 L 90.00 148.75 L 93.25 149.41 C94.01,149.57 94.73,149.71 95.42,149.84 C94.95,149.78 94.56,149.72 94.25,149.66 ZM 120.26 150.05 C120.43,150.02 120.60,149.98 120.78,149.94 C122.28,149.60 123.77,149.16 125.24,148.62 C123.49,149.35 122.05,149.79 120.26,150.05 ZM 150.82 121.64 C151.17,120.38 151.44,119.10 151.61,117.81 C151.69,117.24 151.74,116.68 151.77,116.13 C151.73,117.84 151.41,119.66 150.82,121.64 ZM 145.48 77.43 C145.02,77.90 144.06,78.14 142.54,78.43 C143.78,78.19 144.87,77.81 145.48,77.43 Z" fill="rgb(186,67,74)"/>
<path d="M 205.00 259.26 L 200.50 261.50 L 119.00 261.73 C41.74,261.94 37.22,261.86 32.13,260.09 C29.17,259.06 26.42,257.68 26.01,257.02 C25.60,256.36 24.20,255.28 22.89,254.63 C21.57,253.98 20.50,252.86 20.50,252.14 C20.50,251.42 19.68,250.24 18.68,249.51 C17.68,248.78 16.89,247.80 16.93,247.34 C16.99,246.50 15.05,240.06 14.37,238.86 C13.49,237.29 14.01,86.25 14.91,83.21 C16.62,77.41 19.57,73.78 34.18,59.44 C49.01,44.89 52.27,42.66 61.06,40.99 C68.83,39.51 209.05,39.67 216.47,41.16 C223.42,42.56 230.23,46.91 234.71,52.82 C241.04,61.17 240.94,59.78 241.20,143.00 C241.22,147.68 241.23,152.07 241.24,156.19 C241.18,155.19 241.12,154.28 241.05,153.50 C240.47,146.34 240.28,149.15 240.16,167.25 C240.06,181.86 240.36,190.00 241.00,190.00 C241.10,190.00 241.20,189.85 241.29,189.57 C241.25,217.66 240.83,220.19 239.47,223.99 C237.77,228.73 235.57,231.39 223.50,243.26 C215.35,251.27 207.62,257.96 205.00,259.26 ZM 201.95 253.94 C207.70,251.33 230.54,229.01 233.10,223.50 C234.86,219.71 234.96,215.40 234.98,142.22 C235.00,78.87 234.75,64.34 233.63,61.65 C231.66,56.95 226.36,51.24 221.59,48.69 L 217.50 46.50 L 140.59 46.23 C72.20,45.98 63.06,46.13 58.09,47.57 C53.01,49.04 51.18,50.49 38.17,63.34 C30.28,71.13 22.86,79.30 21.67,81.50 L 19.50 85.50 L 19.50 239.50 L 21.74 243.69 C22.97,246.00 25.49,249.03 27.33,250.44 C28.31,251.18 29.11,251.83 29.96,252.38 C35.17,255.75 42.48,255.86 104.79,255.90 C106.13,255.90 107.50,255.90 108.89,255.90 L 111.03 255.90 L 113.50 255.90 L 114.82 255.91 L 118.00 255.91 C195.68,255.95 197.60,255.91 201.95,253.94 Z" fill="rgb(199,201,201)"/>
<path d="M 105.01 150.41 C101.15,150.31 97.54,150.10 95.42,149.84 C94.73,149.71 94.01,149.57 93.25,149.41 L 90.00 148.75 C91.58,146.83 92.12,146.73 94.43,147.79 C98.27,149.53 103.00,149.36 103.00,147.47 C103.00,146.63 102.36,145.69 101.58,145.39 C100.81,145.10 98.89,142.97 97.34,140.68 C95.78,138.38 93.98,136.16 93.33,135.74 C92.69,135.33 91.40,132.71 90.48,129.93 C88.73,124.68 88.29,124.33 80.34,121.97 C74.64,120.28 71.71,116.10 71.19,108.91 C70.60,100.80 73.20,95.51 80.53,89.92 C85.43,86.18 86.67,84.57 88.51,79.50 C89.71,76.20 91.40,71.93 92.26,70.00 C93.86,66.42 99.43,60.00 100.94,60.00 C102.24,60.00 102.91,57.48 102.01,56.02 C101.39,55.01 96.79,54.76 81.61,54.91 C79.60,54.93 77.79,54.95 76.16,54.97 C78.45,54.89 80.99,54.82 83.83,54.75 C106.92,54.16 107.83,54.32 104.25,58.28 C103.12,59.54 103.72,59.51 106.83,58.01 C102.96,60.31 99.39,63.42 97.07,66.79 C94.44,70.59 89.92,80.24 90.49,80.82 C90.67,81.00 92.18,80.44 93.86,79.57 C94.49,79.25 95.37,78.94 96.36,78.69 C92.83,79.69 90.07,81.72 88.54,84.56 C87.54,86.41 84.91,89.17 82.69,90.71 C76.20,95.20 73.00,100.38 73.00,106.40 C73.01,114.45 77.51,120.18 85.28,122.03 C87.05,122.45 88.54,122.84 88.60,122.90 C88.63,122.94 89.40,122.62 90.49,122.12 C90.02,124.08 93.41,131.49 97.25,136.76 C98.01,137.81 98.71,138.71 99.44,139.55 C99.34,139.44 99.24,139.34 99.14,139.23 C96.74,136.62 95.33,135.58 96.01,136.90 C96.68,138.22 99.25,141.26 101.72,143.66 C105.62,147.45 106.82,149.63 105.01,150.41 ZM 81.50 172.96 C86.60,174.20 88.00,171.51 88.00,160.50 C88.00,152.90 88.34,150.80 89.88,148.90 C89.92,148.85 89.96,148.80 90.00,148.75 L 90.00 164.79 C89.95,167.96 89.69,169.98 88.58,171.27 C86.45,173.77 81.20,173.60 68.31,173.81 C63.27,173.89 58.60,173.89 55.08,173.82 C51.12,173.66 49.23,173.39 48.64,172.96 C48.51,171.72 48.39,167.93 48.29,162.31 C48.27,155.20 48.28,145.10 48.31,134.05 C48.54,164.80 48.87,170.30 50.00,171.02 C50.83,171.54 57.58,172.03 65.00,172.10 C72.43,172.18 79.85,172.56 81.50,172.96 ZM 48.88 67.25 L 51.04 64.07 C53.47,60.48 55.20,58.37 58.56,57.07 C58.38,57.17 58.20,57.28 58.01,57.38 C55.80,58.64 52.64,61.72 50.97,64.23 L 48.88 67.39 C48.88,67.34 48.88,67.30 48.88,67.25 ZM 122.18 54.35 C123.67,54.56 125.15,54.97 126.62,55.57 C126.90,55.70 127.19,55.84 127.50,55.99 C129.26,56.84 131.14,58.07 133.01,59.52 C129.48,56.95 125.67,55.08 122.18,54.35 ZM 120.26 150.05 L 120.24 150.06 C122.51,149.58 125.22,148.57 128.72,146.97 C136.12,143.59 142.62,137.59 146.83,130.73 C144.34,134.81 141.05,138.56 137.24,141.68 C134.50,143.86 131.47,145.76 128.22,147.28 C127.09,147.81 126.12,148.25 125.24,148.62 C123.77,149.16 122.28,149.60 120.78,149.94 C120.60,149.98 120.43,150.02 120.26,150.05 ZM 92.90 120.96 C94.53,120.11 95.92,119.20 97.16,118.13 C95.58,119.67 94.03,120.74 92.90,120.96 ZM 102.08 111.73 C102.30,111.34 102.52,110.93 102.73,110.50 C104.13,107.75 107.01,103.06 109.13,100.09 C107.01,103.06 104.11,107.80 102.68,110.62 C102.50,110.99 102.30,111.36 102.08,111.73 ZM 115.13 150.09 C115.71,150.23 116.30,150.32 116.91,150.35 C116.70,150.36 116.49,150.37 116.26,150.38 C115.90,150.32 115.53,150.22 115.13,150.09 ZM 107.70 146.19 C108.26,146.53 108.84,146.89 109.46,147.27 C108.90,146.95 108.31,146.58 107.70,146.19 ZM 105.34 78.39 C106.78,78.82 107.90,79.70 109.60,81.40 C107.90,79.70 106.77,78.82 105.34,78.39 ZM 101.20 78.00 C101.32,78.00 101.44,78.00 101.55,78.00 L 101.60 78.00 C101.47,78.00 101.34,78.00 101.20,78.00 Z" fill="rgb(208,63,72)"/>
<path d="M 223.86 223.33 C224.25,222.90 224.50,222.36 224.51,221.89 C224.55,219.50 227.35,213.00 228.36,213.00 C228.73,213.00 228.84,209.01 228.77,203.94 C229.11,214.13 228.81,215.19 226.84,218.94 C225.91,220.71 224.74,222.40 223.86,223.33 ZM 137.38 182.00 C177.03,182.00 206.90,182.20 220.06,182.53 C206.51,182.21 175.48,182.00 137.38,182.00 ZM 223.00 224.03 C222.18,224.39 220.38,225.32 219.00,226.09 C220.38,225.32 222.17,224.37 222.99,223.99 C223.23,223.88 223.45,223.72 223.65,223.54 C223.40,223.78 223.18,223.95 223.00,224.03 ZM 227.49 183.02 C227.48,182.98 227.46,182.95 227.45,182.92 C227.45,182.92 227.45,182.93 227.45,182.93 C227.47,182.95 227.48,182.98 227.49,183.02 Z" fill="rgb(216,175,81)"/>
<path d="M 95.23 54.95 C97.22,55.01 98.69,55.10 99.74,55.24 C99.48,55.50 99.42,55.94 99.63,56.49 C100.01,57.46 99.31,58.31 97.60,58.96 C96.17,59.51 95.00,60.64 95.00,61.48 C95.00,62.31 94.10,63.90 93.00,65.00 C91.90,66.10 91.00,68.07 91.00,69.38 C91.00,70.69 90.32,72.32 89.50,73.00 C88.68,73.68 88.00,74.96 88.00,75.84 C88.00,78.33 84.83,86.00 83.80,86.00 C81.84,86.00 72.03,96.38 70.97,99.58 C70.36,101.44 69.75,106.12 69.62,109.97 C69.43,115.85 69.67,117.08 71.10,117.53 C72.05,117.83 73.54,119.17 74.41,120.50 C75.60,122.32 77.25,123.10 80.96,123.59 C86.34,124.30 88.36,125.92 89.42,130.40 C89.80,132.00 92.11,136.10 94.56,139.53 C97.00,142.95 99.00,146.03 99.00,146.38 C99.00,147.41 94.17,147.08 93.50,146.00 C92.30,144.06 90.03,145.04 88.31,148.25 C87.04,150.62 86.55,154.01 86.48,160.72 C86.43,165.79 86.09,170.24 85.72,170.61 C85.35,170.98 83.80,171.22 82.27,171.13 C80.75,171.05 73.29,170.82 65.70,170.61 C58.12,170.41 51.68,170.01 51.40,169.73 C51.12,169.45 50.91,147.05 50.94,119.94 C50.99,77.56 51.21,70.43 52.50,69.00 C53.32,68.09 54.00,66.40 54.00,65.25 C54.00,61.64 55.14,59.97 58.87,58.10 C62.00,56.53 64.50,56.34 77.08,56.67 C87.40,56.94 92.55,56.67 94.69,55.77 C95.62,55.38 95.93,55.12 95.23,54.95 ZM 68.35 127.46 C69.10,129.44 70.62,129.44 71.38,127.46 C71.72,126.58 71.32,125.68 70.44,125.34 C68.48,124.59 67.59,125.49 68.35,127.46 ZM 82.00 148.00 C82.00,148.55 82.68,149.00 83.50,149.00 C84.32,149.00 85.00,148.55 85.00,148.00 C85.00,147.45 84.32,147.00 83.50,147.00 C82.68,147.00 82.00,147.45 82.00,148.00 ZM 102.40 57.23 C102.54,58.56 101.92,60.00 100.94,60.00 C100.75,60.00 100.49,60.10 100.18,60.30 C100.58,59.95 100.99,59.60 101.42,59.24 C102.08,58.69 102.39,57.94 102.40,57.23 ZM 96.42 63.91 C95.75,64.69 95.09,65.52 94.48,66.36 C95.08,65.49 95.71,64.69 96.42,63.91 ZM 90.76 73.61 C90.01,75.49 89.19,77.65 88.51,79.50 C89.34,77.23 90.07,75.29 90.76,73.61 Z" fill="rgb(225,56,65)"/>
<path d="M 81.50 172.96 C79.85,172.56 72.43,172.18 65.00,172.10 C57.58,172.03 50.83,171.54 50.00,171.02 C48.87,170.30 48.54,164.80 48.31,134.05 C48.40,108.29 48.63,77.39 48.88,67.39 L 50.97 64.23 C52.64,61.72 55.80,58.64 58.01,57.38 C58.20,57.28 58.38,57.17 58.56,57.07 C61.96,55.77 67.02,55.29 76.16,54.97 C77.79,54.95 79.60,54.93 81.61,54.91 C87.72,54.85 92.12,54.85 95.23,54.95 C95.93,55.12 95.62,55.38 94.69,55.77 C92.55,56.67 87.40,56.94 77.08,56.67 C64.50,56.34 62.00,56.53 58.87,58.10 C55.14,59.97 54.00,61.64 54.00,65.25 C54.00,66.40 53.32,68.09 52.50,69.00 C51.21,70.43 50.99,77.56 50.94,119.94 C50.91,147.05 51.12,169.45 51.40,169.73 C51.68,170.01 58.12,170.41 65.70,170.61 C73.29,170.82 80.75,171.05 82.27,171.13 C83.80,171.22 85.35,170.98 85.72,170.61 C86.09,170.24 86.43,165.79 86.48,160.72 C86.55,154.01 87.04,150.62 88.31,148.25 C90.03,145.04 92.30,144.06 93.50,146.00 C94.17,147.08 99.00,147.41 99.00,146.38 C99.00,146.03 97.00,142.95 94.56,139.53 C92.11,136.10 89.80,132.00 89.42,130.40 C88.36,125.92 86.34,124.30 80.96,123.59 C77.25,123.10 75.60,122.32 74.41,120.50 C73.54,119.17 72.05,117.83 71.10,117.53 C69.67,117.08 69.43,115.85 69.62,109.97 C69.75,106.12 70.36,101.44 70.97,99.58 C72.03,96.38 81.84,86.00 83.80,86.00 C84.83,86.00 88.00,78.33 88.00,75.84 C88.00,74.96 88.68,73.68 89.50,73.00 C90.32,72.32 91.00,70.69 91.00,69.38 C91.00,68.07 91.90,66.10 93.00,65.00 C94.10,63.90 95.00,62.31 95.00,61.48 C95.00,60.64 96.17,59.51 97.60,58.96 C99.31,58.31 100.01,57.46 99.63,56.49 C99.42,55.94 99.48,55.50 99.74,55.24 C101.13,55.42 101.80,55.68 102.01,56.02 C102.23,56.37 102.36,56.79 102.40,57.23 C102.39,57.94 102.08,58.69 101.42,59.24 C100.99,59.60 100.58,59.95 100.18,60.30 C99.23,60.88 97.81,62.27 96.42,63.91 C95.71,64.69 95.08,65.49 94.48,66.36 C93.53,67.66 92.73,68.95 92.26,70.00 C91.88,70.84 91.35,72.14 90.76,73.61 L 90.76 73.61 C90.07,75.29 89.34,77.23 88.51,79.50 C86.67,84.57 85.43,86.18 80.53,89.92 C73.20,95.51 70.60,100.80 71.19,108.91 C71.71,116.10 74.64,120.28 80.34,121.97 C88.29,124.33 88.73,124.68 90.48,129.93 C91.40,132.71 92.69,135.33 93.33,135.74 C93.98,136.16 95.78,138.38 97.34,140.68 C98.89,142.97 100.81,145.10 101.58,145.39 C102.36,145.69 103.00,146.63 103.00,147.47 C103.00,149.36 98.27,149.53 94.43,147.79 C92.12,146.73 91.58,146.83 90.00,148.75 L 90.00 148.75 L 90.00 148.75 C89.96,148.80 89.92,148.85 89.88,148.90 C88.34,150.80 88.00,152.90 88.00,160.50 C88.00,171.51 86.60,174.20 81.50,172.96 ZM 68.35 127.46 C67.59,125.49 68.48,124.59 70.44,125.34 C71.32,125.68 71.72,126.58 71.38,127.46 C70.62,129.44 69.10,129.44 68.35,127.46 ZM 82.00 148.00 C82.00,147.45 82.68,147.00 83.50,147.00 C84.32,147.00 85.00,147.45 85.00,148.00 C85.00,148.55 84.32,149.00 83.50,149.00 C82.68,149.00 82.00,148.55 82.00,148.00 Z" fill="rgb(216,59,66)"/>
<path d="M 58.76 226.32 C55.61,225.25 53.09,223.51 51.26,221.11 C48.52,217.53 48.50,217.38 48.19,199.75 L 47.87 182.00 L 137.38 182.00 C175.48,182.00 206.51,182.21 220.06,182.53 C224.73,182.64 227.29,182.78 227.45,182.92 C227.46,182.95 227.48,182.98 227.49,183.02 C227.81,184.03 228.30,191.09 228.60,199.18 C228.67,200.96 228.73,202.54 228.77,203.94 C228.84,209.01 228.73,213.00 228.36,213.00 C227.35,213.00 224.55,219.50 224.51,221.89 C224.50,222.36 224.25,222.90 223.86,223.33 L 223.86 223.33 C223.79,223.41 223.72,223.48 223.65,223.54 C223.45,223.72 223.23,223.88 222.99,223.99 C222.17,224.37 220.38,225.32 219.00,226.09 C216.92,227.26 203.57,227.54 140.00,227.71 C72.08,227.90 62.97,227.74 58.76,226.32 Z" fill="rgb(238,179,38)"/>
<path d="M 0.00 150.00 L 0.00 0.00 L 600.00 0.00 L 1200.00 0.00 L 1200.00 150.00 L 1200.00 300.00 L 600.00 300.00 L 0.00 300.00 L 0.00 150.00 ZM 205.00 259.26 C207.62,257.96 215.35,251.27 223.50,243.26 C235.57,231.39 237.77,228.73 239.47,223.99 C241.37,218.69 241.43,215.87 241.20,143.00 C240.94,59.78 241.04,61.17 234.71,52.82 C230.23,46.91 223.42,42.56 216.47,41.16 C209.05,39.67 68.83,39.51 61.06,40.99 C52.27,42.66 49.01,44.89 34.18,59.44 C19.57,73.78 16.62,77.41 14.91,83.21 C14.01,86.25 13.49,237.29 14.37,238.86 C15.05,240.06 16.99,246.50 16.93,247.34 C16.89,247.80 17.68,248.78 18.68,249.51 C19.68,250.24 20.50,251.42 20.50,252.14 C20.50,252.86 21.57,253.98 22.89,254.63 C24.20,255.28 25.60,256.36 26.01,257.02 C26.42,257.68 29.17,259.06 32.13,260.09 C37.22,261.86 41.74,261.94 119.00,261.73 L 200.50 261.50 L 205.00 259.26 ZM 408.68 209.07 C411.53,207.83 414.63,205.96 415.58,204.91 C418.50,201.69 420.83,202.46 421.19,206.75 L 421.50 210.50 L 429.00 210.50 L 436.50 210.50 L 436.50 178.00 C436.50,140.66 436.14,138.49 428.73,131.24 C421.47,124.13 416.54,122.52 402.00,122.51 C390.92,122.50 388.58,122.82 381.39,125.28 C369.14,129.49 369.35,129.18 373.11,137.63 L 376.27 144.75 L 382.74 141.82 C387.50,139.66 391.34,138.74 397.35,138.33 C411.32,137.36 417.65,140.61 418.99,149.44 C419.36,151.90 419.41,154.32 419.09,154.81 C418.76,155.30 412.88,156.00 406.00,156.37 C390.51,157.19 381.85,159.15 375.93,163.17 C367.84,168.66 365.00,174.65 365.00,186.28 C365.00,196.99 368.86,203.78 377.50,208.26 C383.45,211.34 386.67,211.94 395.50,211.62 C401.11,211.42 405.05,210.66 408.68,209.07 ZM 596.57 209.25 C598.80,208.09 601.22,206.44 601.94,205.57 C604.01,203.08 605.87,203.73 606.78,207.25 L 607.63 210.50 L 615.06 210.50 L 622.50 210.50 L 622.76 149.75 L 623.02 89.00 L 614.01 89.00 L 605.00 89.00 L 605.00 108.50 C605.00,119.22 604.61,128.00 604.13,128.00 C603.65,128.00 601.06,126.76 598.38,125.25 C593.92,122.73 592.61,122.50 583.00,122.50 C573.54,122.50 571.94,122.78 566.84,125.28 C553.44,131.86 547.03,145.20 547.03,166.50 C547.03,190.88 556.36,206.60 573.50,211.12 C579.08,212.59 592.14,211.53 596.57,209.25 ZM 683.48 209.92 C686.53,208.78 690.33,206.75 691.91,205.42 C695.62,202.30 696.82,202.37 697.56,205.75 C698.76,211.21 698.60,211.11 705.74,210.80 L 712.50 210.50 L 712.50 176.00 C712.50,144.27 712.35,141.22 710.64,138.00 C708.21,133.44 703.27,128.23 699.50,126.26 C691.83,122.24 676.25,120.76 666.00,123.06 C660.11,124.38 648.17,128.91 647.44,130.10 C647.12,130.62 648.30,134.16 650.06,137.97 L 653.25 144.91 L 657.88 142.58 C666.60,138.18 680.51,136.72 688.00,139.41 C692.85,141.15 696.18,146.30 695.80,151.47 L 695.50 155.50 L 683.00 156.22 C660.16,157.54 650.45,161.53 644.59,172.00 C641.85,176.89 641.51,178.38 641.55,185.50 C641.60,196.19 644.13,201.01 653.31,207.97 C658.84,212.17 674.73,213.20 683.48,209.92 ZM 970.96 209.56 C988.63,203.13 998.58,181.54 995.01,157.38 C992.71,141.81 986.34,132.25 974.26,126.29 C966.79,122.59 966.33,122.50 955.55,122.51 C945.50,122.51 943.94,122.77 938.27,125.39 C922.82,132.50 914.83,149.08 916.31,170.94 C917.71,191.77 927.85,205.85 944.93,210.70 C950.77,212.35 965.01,211.73 970.96,209.56 ZM 1066.73 209.05 C1082.99,201.98 1091.71,177.19 1086.54,152.77 C1083.52,138.52 1078.25,130.72 1068.33,125.84 C1057.26,120.39 1045.33,120.62 1035.62,126.47 L 1030.00 129.85 L 1030.00 109.43 L 1030.00 89.00 L 1020.99 89.00 L 1011.98 89.00 L 1012.24 149.75 L 1012.50 210.50 L 1018.84 210.80 C1026.06,211.14 1028.00,210.10 1028.00,205.88 C1028.00,202.34 1028.26,202.33 1032.65,205.68 C1041.37,212.33 1055.87,213.77 1066.73,209.05 ZM 1164.44 209.56 C1175.61,206.49 1175.46,206.65 1175.79,197.11 C1176.06,189.46 1175.93,188.79 1174.29,189.30 C1173.31,189.60 1169.12,191.07 1165.00,192.56 C1154.36,196.39 1142.54,196.98 1134.81,194.05 C1127.87,191.43 1123.64,186.90 1121.54,179.83 C1120.69,176.98 1120.00,174.05 1120.00,173.33 C1120.00,172.30 1126.10,171.98 1149.75,171.76 L 1179.50 171.50 L 1179.81 166.64 C1180.59,154.35 1176.39,140.76 1169.42,133.05 C1163.46,126.44 1155.26,122.82 1144.95,122.23 C1116.36,120.60 1098.61,142.29 1102.17,174.50 C1104.22,193.02 1114.68,205.38 1132.69,210.56 C1138.88,212.34 1156.36,211.79 1164.44,209.56 ZM 293.77 189.36 L 294.04 168.23 L 307.77 167.78 C324.11,167.24 330.16,165.36 337.90,158.40 C352.38,145.38 353.84,119.36 340.84,106.09 C333.11,98.21 323.21,96.02 295.25,96.01 L 276.00 96.00 L 276.00 152.83 C276.00,184.09 276.32,209.98 276.70,210.37 C277.09,210.76 281.03,210.95 285.45,210.79 L 293.50 210.50 L 293.77 189.36 ZM 477.00 181.00 C477.49,151.83 477.53,151.45 480.00,147.05 C483.70,140.47 487.75,138.50 497.60,138.50 C506.41,138.50 507.95,139.19 510.82,144.43 C512.26,147.06 512.57,151.98 513.00,179.00 L 513.50 210.50 L 522.00 210.50 L 530.50 210.50 L 530.76 178.56 C531.06,143.25 530.65,139.96 525.04,132.21 C516.29,120.13 491.98,118.45 478.85,129.00 C474.92,132.16 474.00,131.67 474.00,126.42 C474.00,124.06 473.79,124.00 466.00,124.00 L 458.00 124.00 L 458.00 166.83 C458.00,190.39 458.32,209.98 458.70,210.37 C459.09,210.76 463.25,210.94 467.95,210.79 L 476.50 210.50 L 477.00 181.00 ZM 755.77 189.25 L 756.04 168.00 L 766.47 168.00 C779.22,168.00 785.72,166.72 793.33,162.71 C800.36,159.00 805.22,153.57 808.21,146.08 C810.01,141.58 810.44,138.47 810.47,130.00 C810.50,120.44 810.24,118.98 807.65,113.69 C805.74,109.80 803.16,106.59 799.83,103.96 C791.76,97.58 787.73,96.77 761.25,96.25 L 738.00 95.79 L 738.00 153.43 L 738.00 211.08 L 746.75 210.79 L 755.50 210.50 L 755.77 189.25 ZM 891.80 203.75 C891.96,200.04 891.73,196.96 891.30,196.91 C890.86,196.85 885.55,196.29 879.50,195.66 L 868.50 194.50 L 868.22 179.13 C867.84,157.58 870.64,148.04 879.21,141.68 C883.05,138.83 891.79,138.27 897.61,140.49 C900.15,141.46 902.53,141.85 902.99,141.37 C903.44,140.89 904.77,137.38 905.93,133.57 C907.60,128.10 907.78,126.47 906.77,125.82 C903.74,123.85 895.13,122.00 889.07,122.02 C880.86,122.05 875.14,124.50 869.88,130.25 L 866.00 134.50 L 865.99 131.50 C865.98,129.85 865.70,127.49 865.37,126.25 C864.77,124.02 864.62,124.00 845.84,124.00 L 826.91 124.00 L 827.20 130.75 L 827.50 137.50 L 838.77 138.39 L 850.03 139.27 L 849.77 166.89 L 849.50 194.50 L 840.50 195.29 C835.55,195.73 830.04,196.31 828.25,196.59 L 825.00 197.09 L 825.00 203.38 C825.00,206.84 825.31,209.97 825.68,210.35 C826.05,210.72 841.02,210.91 858.93,210.76 L 891.50 210.50 L 891.80 203.75 ZM 112.00 148.78 C103.21,143.62 100.83,141.68 97.25,136.76 C93.22,131.23 89.68,123.32 90.59,121.86 C90.88,121.39 91.73,121.00 92.48,121.00 C94.97,121.00 100.06,115.82 102.68,110.62 C104.11,107.80 107.01,103.06 109.13,100.09 C112.37,95.56 113.00,93.87 113.00,89.74 C113.00,85.46 112.55,84.35 109.60,81.40 C106.71,78.51 105.50,78.00 101.55,78.00 C98.99,78.00 95.53,78.71 93.86,79.57 C92.18,80.44 90.67,81.00 90.49,80.82 C89.92,80.24 94.44,70.59 97.07,66.79 C101.87,59.84 111.93,54.00 119.08,54.00 C127.40,54.00 139.10,62.40 143.91,71.82 C146.68,77.25 146.59,77.67 142.54,78.43 C138.03,79.27 135.00,83.15 135.00,88.09 C135.00,93.70 136.63,96.42 143.01,101.43 C150.09,106.99 152.47,111.54 151.61,117.90 C150.06,129.49 140.54,141.58 128.72,146.97 C120.12,150.89 116.31,151.31 112.00,148.78 ZM 124.09 136.45 C127.70,134.58 130.99,129.51 131.00,125.79 C131.00,123.98 131.76,122.68 133.25,121.91 C139.33,118.77 142.37,112.12 138.42,110.61 C135.79,109.60 120.00,109.93 117.93,111.04 C113.87,113.21 116.95,119.58 122.99,121.50 C127.33,122.87 125.89,129.30 120.76,131.46 C117.99,132.62 117.01,132.61 114.02,131.36 C112.10,130.56 110.21,129.36 109.83,128.70 C107.74,125.08 106.33,123.94 104.72,124.55 C102.60,125.37 102.54,127.21 104.52,131.04 C107.58,136.95 117.71,139.75 124.09,136.45 ZM 97.75 98.92 C95.27,97.48 95.53,93.32 98.18,91.90 C100.04,90.91 100.64,91.07 102.21,93.01 C103.81,94.99 103.87,95.56 102.69,97.34 C101.00,99.89 99.98,100.21 97.75,98.92 ZM 388.39 195.02 C385.02,193.66 382.00,189.07 382.00,185.32 C382.00,175.89 388.46,172.08 406.34,170.94 C413.01,170.51 418.85,170.41 419.33,170.70 C420.27,171.28 419.47,178.67 417.93,183.57 C416.57,187.89 411.34,192.53 405.72,194.40 C400.60,196.11 391.85,196.42 388.39,195.02 ZM 575.52 193.71 C567.57,189.21 563.82,176.58 565.77,160.87 C567.32,148.37 571.06,142.08 578.76,139.04 C583.19,137.29 592.36,138.15 595.79,140.64 C599.84,143.58 602.84,150.52 604.10,159.84 C606.26,175.92 602.07,190.18 593.98,194.25 C588.95,196.78 580.50,196.53 575.52,193.71 ZM 664.33 194.54 C660.34,192.81 659.00,190.33 659.00,184.70 C659.00,175.36 665.31,171.92 683.75,171.22 L 696.00 170.76 L 695.98 176.13 C695.96,185.25 690.29,192.44 681.12,194.98 C676.06,196.39 668.09,196.18 664.33,194.54 ZM 947.50 194.58 C943.32,192.71 938.61,187.31 936.59,182.08 C933.97,175.30 933.42,162.77 935.40,155.06 C938.37,143.52 944.99,138.04 956.00,138.04 C971.06,138.04 977.70,147.87 976.78,168.79 C976.13,183.66 972.53,191.09 964.28,194.62 C960.22,196.36 951.43,196.34 947.50,194.58 ZM 1040.50 193.73 C1037.51,192.07 1035.74,189.98 1033.50,185.50 C1030.65,179.79 1030.50,178.89 1030.50,167.00 C1030.50,155.11 1030.65,154.21 1033.50,148.50 C1037.63,140.24 1041.95,137.74 1051.15,138.31 C1064.02,139.10 1068.18,145.18 1068.81,164.14 C1069.26,177.50 1067.70,184.83 1063.29,190.07 C1058.05,196.29 1047.98,197.91 1040.50,193.73 ZM 1121.00 155.12 C1121.00,153.43 1123.84,147.47 1125.89,144.87 C1131.13,138.21 1144.64,135.87 1152.50,140.27 C1156.71,142.63 1161.00,149.41 1161.00,153.71 L 1161.00 156.00 L 1141.00 156.00 C1130.00,156.00 1121.00,155.60 1121.00,155.12 ZM 294.75 151.45 C294.34,151.02 294.00,142.19 294.00,131.83 L 294.00 113.00 L 306.29 113.00 C317.06,113.00 319.12,113.28 322.96,115.25 C328.73,118.21 331.00,122.56 331.00,130.67 C331.00,134.08 330.52,138.14 329.94,139.68 C328.47,143.58 324.15,147.97 320.10,149.70 C316.36,151.30 295.95,152.71 294.75,151.45 ZM 756.00 132.64 L 756.00 113.00 L 767.75 113.02 C780.29,113.05 785.46,114.43 789.34,118.79 C793.58,123.56 793.74,137.07 789.63,143.28 C786.00,148.77 779.59,151.16 766.97,151.76 L 756.00 152.28 L 756.00 132.64 Z" fill="rgb(254,254,254)"/>
</g>
</svg>