<svg xmlns="http://www.w3.org/2000/svg" width="1200" height="300" viewBox="0 0 1200 300">
<g>
<path d="M 201.95 253.94 C197.60,255.91 195.68,255.95 118.00,255.91 C115.61,255.91 113.29,255.90 111.03,255.90 C42.96,255.87 35.34,255.86 29.96,252.38 C29.11,251.83 28.31,251.18 27.33,250.44 C25.49,249.03 22.97,246.00 21.74,243.69 L 19.50 239.50 L 19.50 85.50 L 21.67 81.50 C22.86,79.30 30.28,71.13 38.17,63.34 C51.18,50.49 53.01,49.04 58.09,47.57 C63.06,46.13 72.20,45.98 140.59,46.23 L 217.50 46.50 L 221.59 48.69 C226.36,51.24 231.66,56.95 233.63,61.65 C234.75,64.34 235.00,78.87 234.98,142.22 C234.96,215.40 234.86,219.71 233.10,223.50 C230.54,229.01 207.70,251.33 201.95,253.94 ZM 48.69 173.35 C49.06,173.73 58.40,173.92 69.44,173.77 L 89.50 173.50 L 89.78 161.13 L 90.06 148.75 L 95.28 149.57 C98.15,150.01 105.22,150.40 111.00,150.42 C120.74,150.45 121.99,150.22 128.22,147.29 C136.97,143.18 144.23,136.32 148.01,128.60 C154.17,116.01 152.93,109.22 143.01,101.43 C136.63,96.42 135.00,93.70 135.00,88.09 C135.00,83.15 138.03,79.27 142.54,78.43 C146.59,77.67 146.68,77.25 143.91,71.82 C141.04,66.19 133.50,58.91 127.50,55.96 L 122.50 53.50 L 92.65 53.78 C60.29,54.08 58.34,54.38 53.41,59.69 C52.57,60.60 51.86,61.36 51.26,62.19 C48.00,66.73 48.00,73.61 48.00,119.67 L 48.00 120.96 C48.00,149.40 48.31,172.98 48.69,173.35 ZM 58.82 227.04 C60.29,227.49 96.38,227.78 139.00,227.68 C203.47,227.53 216.92,227.26 219.00,226.09 C220.38,225.32 222.18,224.39 223.00,224.03 C223.82,223.67 225.55,221.38 226.84,218.94 C229.08,214.69 229.15,213.84 228.64,199.23 C228.34,190.84 227.82,183.52 227.49,182.98 C227.10,182.35 195.01,182.00 137.44,182.00 L 48.00 182.00 L 48.01 199.75 C48.01,215.33 48.24,217.84 49.86,220.31 C52.03,223.59 55.08,225.88 58.82,227.04 ZM 129.93 173.25 C129.97,173.66 139.44,174.00 150.97,174.00 L 171.95 174.00 L 172.50 143.50 L 196.05 143.00 C222.86,142.43 223.70,142.20 227.16,134.38 C229.01,130.20 229.11,127.97 228.81,98.21 C228.51,67.22 228.45,66.41 226.20,62.48 C224.93,60.27 222.26,57.35 220.27,55.98 L 216.65 53.50 L 176.69 53.22 L 136.72 52.93 L 142.39 59.06 C152.21,69.66 157.64,83.65 158.69,101.00 C160.09,124.18 152.11,141.42 135.48,151.14 L 129.59 154.58 L 129.72 163.54 C129.80,168.47 129.89,172.84 129.93,173.25 ZM 178.82 172.38 C179.11,173.82 181.90,174.00 204.07,174.00 L 229.00 174.00 L 229.00 160.00 C229.00,152.30 228.60,146.00 228.11,146.00 C227.62,146.00 225.26,146.89 222.86,147.98 C219.00,149.73 216.26,149.96 198.81,149.98 L 179.13 150.00 L 178.81 160.38 C178.64,166.09 178.65,171.49 178.82,172.38 ZM 92.47 121.00 C91.72,121.00 90.74,121.64 90.30,122.43 C89.61,123.66 88.74,123.61 84.25,122.08 C73.75,118.53 70.19,112.06 73.05,101.75 C74.19,97.66 76.45,94.92 82.31,90.53 C84.40,88.96 86.78,86.40 87.58,84.85 C89.53,81.07 95.80,78.00 101.56,78.00 C105.50,78.00 106.71,78.51 109.60,81.40 C112.55,84.35 113.00,85.46 113.00,89.74 C113.00,93.87 112.37,95.56 109.13,100.09 C107.01,103.06 104.11,107.80 102.68,110.62 C100.06,115.82 94.96,121.00 92.47,121.00 ZM 184.00 127.00 C182.53,128.47 180.67,129.00 177.00,129.00 L 172.00 129.00 L 172.00 67.00 L 176.37 67.00 C179.27,67.00 181.61,67.69 183.37,69.07 L 186.00 71.15 L 186.00 98.07 C186.00,123.67 185.90,125.10 184.00,127.00 ZM 124.09 136.45 C117.71,139.75 107.58,136.95 104.52,131.04 C102.54,127.21 102.60,125.37 104.72,124.55 C106.33,123.94 107.74,125.08 109.83,128.70 C110.21,129.36 112.14,130.58 114.11,131.40 C117.35,132.76 118.01,132.74 121.01,131.20 C122.84,130.26 124.70,128.46 125.15,127.19 C126.02,124.77 124.41,122.67 118.62,118.70 C115.48,116.55 115.12,112.54 117.93,111.04 C120.00,109.93 135.79,109.60 138.42,110.61 C142.37,112.12 139.33,118.77 133.25,121.91 C131.76,122.68 131.00,123.98 131.00,125.79 C130.99,129.51 127.70,134.58 124.09,136.45 ZM 96.00 165.75 L 96.00 174.00 L 123.00 174.00 L 123.00 157.50 L 96.00 157.50 ZM 97.75 98.92 C100.23,100.36 100.70,100.26 102.33,97.94 C105.08,94.02 101.98,89.87 97.93,92.04 C95.51,93.33 95.40,97.55 97.75,98.92 Z" fill="rgb(6,6,7)"/>
<path d="M 154.57 170.94 C147.73,170.86 141.77,171.01 141.32,171.26 C139.67,172.20 138.00,170.77 138.00,168.42 C138.00,166.40 137.51,166.00 135.00,166.00 C131.63,166.00 131.22,164.53 133.11,159.10 C133.94,156.74 135.00,155.75 137.20,155.31 C138.98,154.95 140.60,153.77 141.24,152.38 C141.82,151.09 143.07,149.80 144.01,149.50 C144.94,149.20 146.56,147.37 147.60,145.43 C148.65,143.49 150.51,141.24 151.75,140.43 C152.99,139.62 154.00,138.31 154.00,137.51 C154.00,136.72 154.84,135.62 155.87,135.07 C156.90,134.52 158.03,132.62 158.38,130.85 C158.73,129.08 159.81,126.77 160.76,125.71 C162.28,124.03 162.50,121.47 162.50,105.62 C162.50,88.29 162.40,87.32 160.25,84.59 C158.83,82.79 158.00,80.35 158.00,78.02 C158.00,75.66 157.32,73.69 156.12,72.60 C155.08,71.67 153.27,68.27 152.10,65.05 C150.93,61.83 149.27,58.93 148.42,58.61 C143.84,56.85 151.05,56.33 181.14,56.23 C213.53,56.13 218.00,56.50 218.00,59.29 C218.00,59.97 218.86,61.05 219.90,61.71 C224.10,64.33 224.93,70.67 225.08,101.14 C225.22,129.77 225.22,129.78 222.86,132.99 C218.71,138.62 217.34,138.90 192.63,139.22 L 170.04 139.50 L 169.10 142.00 C167.67,145.81 167.00,162.25 168.19,164.38 C168.91,165.66 168.88,166.96 168.11,168.65 C167.02,171.04 166.83,171.08 154.57,170.94 ZM 173.73 133.28 C175.25,133.51 176.78,133.77 177.13,133.85 C177.47,133.93 180.27,132.88 183.35,131.52 C188.59,129.21 188.92,128.86 188.39,126.22 C188.02,124.37 188.34,122.96 189.30,122.17 C190.48,121.19 190.58,120.09 189.81,116.72 C189.28,114.40 188.98,103.28 189.14,92.00 C189.52,66.46 188.89,64.88 178.18,64.38 C172.16,64.10 168.00,65.22 164.13,68.17 C162.83,69.16 161.37,69.73 160.88,69.43 C160.40,69.13 160.01,70.15 160.03,71.69 L 160.07 74.50 L 161.94 72.25 C162.98,71.01 164.52,70.00 165.38,70.00 C167.39,70.00 169.35,73.68 168.48,75.83 C168.11,76.75 167.88,88.97 167.96,103.00 C168.12,130.82 168.44,132.48 173.73,133.28 ZM 209.67 65.33 C210.63,66.29 214.25,66.13 215.97,65.04 C217.90,63.82 217.28,63.32 212.75,62.48 C209.82,61.93 209.00,62.09 209.00,63.22 C209.00,64.02 209.30,64.97 209.67,65.33 ZM 159.67 137.33 C160.82,138.48 162.00,138.06 162.00,136.50 C162.00,135.68 161.32,135.00 160.50,135.00 C158.94,135.00 158.52,136.18 159.67,137.33 ZM 143.64 168.31 C144.44,169.11 146.00,168.20 146.00,166.94 C146.00,166.42 145.32,166.00 144.50,166.00 C142.95,166.00 142.51,167.18 143.64,168.31 ZM 161.00 165.00 C161.00,165.55 161.45,166.00 162.00,166.00 C162.55,166.00 163.00,165.55 163.00,165.00 C163.00,164.45 162.55,164.00 162.00,164.00 C161.45,164.00 161.00,164.45 161.00,165.00 Z" fill="rgb(65,136,197)"/>
<path d="M 130.66 164.33 C130.26,163.93 129.93,165.44 129.79,167.55 C129.77,166.31 129.75,164.95 129.72,163.54 L 129.67 159.78 C129.73,160.06 129.80,160.35 129.88,160.66 C130.56,163.20 130.64,163.14 131.85,159.11 C132.74,156.15 133.87,154.62 135.67,153.94 C137.08,153.40 140.31,150.62 142.86,147.75 C145.41,144.88 148.66,141.40 150.09,140.01 C157.14,133.15 161.00,120.55 161.00,104.40 C161.00,95.99 160.53,92.10 159.00,87.74 C157.90,84.61 157.00,81.17 157.00,80.09 C157.00,79.01 155.43,75.06 153.50,71.31 C151.58,67.56 150.01,64.01 150.00,63.42 C150.00,62.82 148.63,61.11 146.97,59.63 C145.30,58.14 144.21,56.47 144.55,55.92 C144.94,55.29 157.84,54.97 180.28,55.05 L 215.39 55.18 L 219.39 58.60 C226.34,64.55 226.40,64.88 226.79,99.17 L 227.13 129.85 L 224.51 133.81 C220.39,140.03 216.92,140.87 193.00,141.46 C181.73,141.74 172.22,141.97 171.87,141.98 C171.53,141.99 170.67,143.38 169.97,145.06 C169.08,147.22 168.88,151.20 169.30,158.55 C169.78,167.09 169.61,169.24 168.37,170.49 C166.71,172.14 166.03,172.20 145.27,172.40 L 131.03 172.53 L 131.18 168.76 C131.26,166.69 131.03,164.70 130.66,164.33 ZM 154.57 170.94 C166.83,171.08 167.02,171.04 168.11,168.65 C168.88,166.96 168.91,165.66 168.19,164.38 C167.00,162.25 167.67,145.81 169.10,142.00 L 170.04 139.50 L 192.63 139.22 C217.34,138.90 218.71,138.62 222.86,132.99 C225.22,129.78 225.22,129.77 225.08,101.14 C224.93,70.67 224.10,64.33 219.90,61.71 C218.86,61.05 218.00,59.97 218.00,59.29 C218.00,56.50 213.53,56.13 181.14,56.23 C151.05,56.33 143.84,56.85 148.42,58.61 C149.27,58.93 150.93,61.83 152.10,65.05 C153.27,68.27 155.08,71.67 156.12,72.60 C157.32,73.69 158.00,75.66 158.00,78.02 C158.00,80.35 158.83,82.79 160.25,84.59 C162.40,87.32 162.50,88.29 162.50,105.62 C162.50,121.47 162.28,124.03 160.76,125.71 C159.81,126.77 158.73,129.08 158.38,130.85 C158.03,132.62 156.90,134.52 155.87,135.07 C154.84,135.62 154.00,136.72 154.00,137.51 C154.00,138.31 152.99,139.62 151.75,140.43 C150.51,141.24 148.65,143.49 147.60,145.43 C146.56,147.37 144.94,149.20 144.01,149.50 C143.07,149.80 141.82,151.09 141.24,152.38 C140.60,153.77 138.98,154.95 137.20,155.31 C135.00,155.75 133.94,156.74 133.11,159.10 C131.22,164.53 131.63,166.00 135.00,166.00 C137.51,166.00 138.00,166.40 138.00,168.42 C138.00,170.77 139.67,172.20 141.32,171.26 C141.77,171.01 147.73,170.86 154.57,170.94 ZM 173.73 133.28 C168.44,132.48 168.12,130.82 167.96,103.00 C167.88,88.97 168.11,76.75 168.48,75.83 C169.35,73.68 167.39,70.00 165.38,70.00 C164.52,70.00 162.98,71.01 161.94,72.25 L 160.07 74.50 L 160.03 71.69 C160.01,70.15 160.40,69.13 160.88,69.43 C161.37,69.73 162.83,69.16 164.13,68.17 C168.00,65.22 172.16,64.10 178.18,64.38 C188.89,64.88 189.52,66.46 189.14,92.00 C188.98,103.28 189.28,114.40 189.81,116.72 C190.58,120.09 190.48,121.19 189.30,122.17 C188.34,122.96 188.02,124.37 188.39,126.22 C188.92,128.86 188.59,129.21 183.35,131.52 C180.27,132.88 177.47,133.93 177.13,133.85 C176.78,133.77 175.25,133.51 173.73,133.28 ZM 171.26 128.60 C173.21,131.08 173.65,131.19 179.41,130.54 C186.07,129.80 187.58,128.96 186.66,126.54 C186.12,125.15 185.79,125.21 184.02,126.98 C185.89,125.10 186.00,123.59 186.00,98.62 L 186.43 122.50 L 187.04 100.50 C187.37,88.40 187.95,77.60 188.33,76.50 C188.78,75.22 188.20,73.07 186.74,70.50 C185.00,67.46 183.73,66.42 181.47,66.17 L 178.50 65.84 L 181.94 68.17 C180.41,67.39 178.54,67.00 176.37,67.00 L 172.00 67.00 L 172.00 98.03 C172.00,73.22 171.74,67.16 170.71,67.56 C169.71,67.94 169.40,74.43 169.31,97.01 C169.20,124.85 169.28,126.08 171.26,128.60 ZM 209.67 65.33 C209.30,64.97 209.00,64.02 209.00,63.22 C209.00,62.09 209.82,61.93 212.75,62.48 C217.28,63.32 217.90,63.82 215.97,65.04 C214.25,66.13 210.63,66.29 209.67,65.33 ZM 159.67 137.33 C158.52,136.18 158.94,135.00 160.50,135.00 C161.32,135.00 162.00,135.68 162.00,136.50 C162.00,138.06 160.82,138.48 159.67,137.33 ZM 143.64 168.31 C142.51,167.18 142.95,166.00 144.50,166.00 C145.32,166.00 146.00,166.42 146.00,166.94 C146.00,168.20 144.44,169.11 143.64,168.31 ZM 161.00 165.00 C161.00,164.45 161.45,164.00 162.00,164.00 C162.55,164.00 163.00,164.45 163.00,165.00 C163.00,165.55 162.55,166.00 162.00,166.00 C161.45,166.00 161.00,165.55 161.00,165.00 ZM 129.62 156.32 L 129.59 154.58 L 135.48 151.14 C131.92,153.22 130.18,154.59 129.62,156.32 ZM 129.93 173.25 C129.93,173.21 129.92,173.15 129.92,173.06 C130.27,173.44 133.60,173.72 139.36,173.87 C133.71,173.74 129.95,173.51 129.93,173.25 ZM 185.50 70.75 L 183.91 69.50 L 185.50 70.58 ZM 152.02 134.66 C148.13,141.44 142.62,146.97 135.53,151.11 C142.62,146.95 148.14,141.43 152.02,134.66 ZM 181.66 128.45 C180.50,128.84 179.03,129.00 177.00,129.00 C179.02,129.00 180.50,128.84 181.66,128.45 Z" fill="rgb(69,136,192)"/>
<path d="M 178.82 172.38 C178.65,171.49 178.64,166.09 178.81,160.38 L 179.13 150.00 L 198.81 149.98 C216.26,149.96 219.00,149.73 222.86,147.98 C225.26,146.89 227.62,146.00 228.11,146.00 C228.60,146.00 229.00,152.30 229.00,160.00 L 229.00 174.00 L 204.07 174.00 C181.90,174.00 179.11,173.82 178.82,172.38 ZM 96.00 165.75 L 96.00 157.50 L 123.00 157.50 L 123.00 174.00 L 96.00 174.00 Z" fill="rgb(70,148,117)"/>
<path d="M 130.66 164.33 C131.03,164.70 131.26,166.69 131.18,168.76 L 131.03 172.53 L 145.27 172.40 C166.03,172.20 166.71,172.14 168.37,170.49 C169.61,169.24 169.78,167.09 169.30,158.55 C168.88,151.20 169.08,147.22 169.97,145.06 C170.67,143.38 171.53,141.99 171.87,141.98 C172.22,141.97 181.73,141.74 193.00,141.46 C216.92,140.87 220.39,140.03 224.51,133.81 L 227.13 129.85 L 226.79 99.17 C226.40,64.88 226.34,64.55 219.39,58.60 L 215.39 55.18 L 180.28 55.05 C157.84,54.97 144.94,55.29 144.55,55.92 C144.21,56.47 145.30,58.14 146.97,59.63 C148.63,61.11 150.00,62.82 150.00,63.42 C150.01,64.01 151.58,67.56 153.50,71.31 C155.43,75.06 157.00,79.01 157.00,80.09 C157.00,81.17 157.90,84.61 159.00,87.74 C160.53,92.10 161.00,95.99 161.00,104.40 C161.00,120.55 157.14,133.15 150.09,140.01 C148.66,141.40 145.41,144.88 142.86,147.75 C140.31,150.62 137.08,153.40 135.67,153.94 C133.87,154.62 132.74,156.15 131.85,159.11 C130.64,163.14 130.56,163.20 129.88,160.66 C129.80,160.35 129.73,160.06 129.67,159.78 L 129.62 156.32 C130.18,154.59 131.92,153.22 135.48,151.14 C135.50,151.13 135.51,151.12 135.53,151.11 C135.55,151.10 135.56,151.09 135.58,151.08 C142.64,146.94 148.14,141.43 152.01,134.67 L 152.02 134.66 C157.22,125.58 159.49,114.26 158.69,101.00 C157.64,83.65 152.21,69.66 142.39,59.06 L 136.72 52.93 L 176.69 53.22 L 216.65 53.50 L 220.27 55.98 C222.26,57.35 224.93,60.27 226.20,62.48 C228.45,66.41 228.51,67.22 228.81,98.21 C229.11,127.97 229.01,130.20 227.16,134.38 C223.70,142.20 222.86,142.43 196.05,143.00 L 172.50 143.50 L 171.95 174.00 L 150.97 174.00 C146.69,174.00 142.70,173.95 139.36,173.87 C133.60,173.72 130.27,173.44 129.92,173.06 C129.89,172.39 129.84,170.27 129.79,167.55 C129.93,165.44 130.26,163.93 130.66,164.33 ZM 184.00 127.00 L 184.02 126.98 C185.79,125.21 186.12,125.16 186.66,126.54 C187.58,128.96 186.07,129.80 179.41,130.54 C173.65,131.19 173.21,131.08 171.26,128.60 C169.28,126.08 169.20,124.85 169.31,97.01 C169.40,74.43 169.71,67.94 170.71,67.56 C171.74,67.16 172.00,73.22 172.00,98.03 L 172.00 129.00 L 177.00 129.00 C177.30,129.00 177.59,129.00 177.87,128.99 C179.45,128.95 180.67,128.78 181.66,128.45 C182.60,128.13 183.34,127.66 184.00,127.00 ZM 185.50 70.75 L 185.50 70.58 L 183.91 69.50 L 183.37 69.07 C182.93,68.73 182.45,68.43 181.94,68.17 L 178.50 65.84 L 181.47 66.17 C183.73,66.42 185.00,67.46 186.74,70.50 C188.20,73.07 188.78,75.22 188.33,76.50 C187.95,77.60 187.37,88.40 187.04,100.50 L 186.43 122.50 L 186.00 98.62 L 186.00 98.07 L 186.00 71.15 Z" fill="rgb(76,133,181)"/>
<path d="M 242.00 180.06 C242.00,184.69 241.58,188.00 241.00,188.00 C240.41,188.00 240.00,184.48 240.00,179.44 C240.00,173.99 240.36,171.11 241.00,171.50 C241.55,171.84 242.00,175.69 242.00,180.06 Z" fill="rgb(163,163,162)"/>
<path d="M 129.25 56.91 C122.82,53.33 116.38,53.20 109.81,56.50 C109.67,56.57 109.54,56.64 109.40,56.71 C105.91,58.46 104.67,59.08 104.24,58.73 C104.00,58.53 104.00,58.04 104.00,57.29 C104.00,57.23 104.00,57.18 104.00,57.12 C104.00,54.46 100.55,54.00 80.34,54.00 C78.78,54.00 77.33,54.00 75.97,54.02 C80.39,53.91 85.85,53.84 92.65,53.78 L 122.50 53.50 L 127.50 55.96 C128.07,56.24 128.65,56.56 129.25,56.91 ZM 103.80 150.24 C105.53,149.43 105.27,147.31 103.20,145.81 C101.13,144.30 96.00,137.69 96.00,136.53 C96.00,136.10 97.69,137.59 99.75,139.85 C101.81,142.11 106.35,145.54 109.82,147.47 C113.04,149.25 114.71,150.12 116.25,150.38 C114.81,150.42 113.10,150.42 111.00,150.42 C108.69,150.41 106.17,150.34 103.80,150.24 ZM 91.87 149.03 C92.96,148.68 94.68,149.08 97.42,149.72 C97.64,149.77 97.86,149.83 98.10,149.88 C96.96,149.78 95.99,149.68 95.28,149.57 ZM 137.17 141.73 C141.42,138.26 145.03,134.02 147.60,129.40 C145.20,133.97 141.58,138.22 137.17,141.73 ZM 143.91 71.82 C143.96,71.92 144.01,72.02 144.06,72.11 C142.75,69.88 140.92,67.30 139.03,65.10 C141.10,67.36 142.83,69.71 143.91,71.82 ZM 119.97 150.11 C120.23,150.06 120.49,150.00 120.78,149.94 C122.38,149.58 123.97,149.10 125.53,148.51 C123.51,149.37 121.96,149.85 119.97,150.11 ZM 150.82 121.64 C151.17,120.38 151.44,119.10 151.61,117.81 C151.69,117.24 151.74,116.68 151.77,116.13 C151.73,117.84 151.41,119.66 150.82,121.64 ZM 145.48 77.43 C145.02,77.90 144.06,78.14 142.54,78.43 C143.78,78.19 144.87,77.81 145.48,77.43 ZM 57.76 56.21 C56.11,57.04 54.83,58.16 53.41,59.69 C54.84,58.15 56.02,57.03 57.76,56.21 Z" fill="rgb(186,68,75)"/>
<path d="M 205.00 259.26 L 200.50 261.50 L 119.00 261.64 C74.18,261.72 36.60,261.56 35.50,261.30 C34.40,261.03 33.07,260.40 32.55,259.90 C32.03,259.41 30.82,259.00 29.87,259.00 C28.92,259.00 27.36,258.22 26.40,257.26 C25.44,256.30 23.72,255.05 22.58,254.48 C21.44,253.91 20.50,252.86 20.50,252.14 C20.50,251.42 19.68,250.24 18.68,249.51 C17.68,248.78 16.94,247.90 17.04,247.55 C17.13,247.20 16.75,245.70 16.20,244.21 C15.64,242.72 14.93,240.69 14.60,239.70 C13.57,236.50 13.86,86.73 14.90,83.21 C15.44,81.41 16.78,78.48 17.87,76.71 C21.03,71.59 48.11,45.57 52.31,43.62 C59.65,40.21 67.54,39.91 143.02,40.21 L 217.50 40.50 L 223.16 43.28 C229.68,46.48 235.30,52.25 238.35,58.88 C240.42,63.37 240.50,65.21 241.20,122.50 C241.45,143.21 241.59,159.94 241.59,173.43 C241.43,172.35 241.22,171.64 241.00,171.50 C240.36,171.11 240.00,173.99 240.00,179.44 C240.00,184.48 240.41,188.00 241.00,188.00 C241.21,188.00 241.39,187.58 241.55,186.83 C241.36,209.73 240.61,220.22 239.18,224.49 C237.76,228.70 235.30,231.65 223.50,243.26 C215.35,251.27 207.62,257.96 205.00,259.26 ZM 201.95 253.94 C207.70,251.33 230.54,229.01 233.10,223.50 C234.86,219.71 234.96,215.40 234.98,142.22 C235.00,78.87 234.75,64.34 233.63,61.65 C231.66,56.95 226.36,51.24 221.59,48.69 L 217.50 46.50 L 140.59 46.23 C72.20,45.98 63.06,46.13 58.09,47.57 C53.01,49.04 51.18,50.49 38.17,63.34 C30.28,71.13 22.86,79.30 21.67,81.50 L 19.50 85.50 L 19.50 239.50 L 21.74 243.69 C22.97,246.00 25.49,249.03 27.33,250.44 C28.31,251.18 29.11,251.83 29.96,252.38 C35.34,255.86 42.96,255.87 111.03,255.90 C113.29,255.90 115.61,255.91 118.00,255.91 C195.68,255.95 197.60,255.91 201.95,253.94 Z" fill="rgb(197,199,199)"/>
<path d="M 48.69 173.35 C48.49,173.16 48.32,166.92 48.19,157.07 C48.48,168.02 49.17,170.80 50.85,171.70 C51.44,172.01 52.15,172.10 53.00,172.23 C54.38,172.43 62.34,172.65 70.69,172.72 C83.39,172.83 86.09,172.59 87.18,171.28 C88.05,170.23 88.49,166.58 88.49,160.40 C88.50,154.06 88.63,151.03 90.04,149.82 L 89.78 161.13 L 89.50 173.50 L 69.44 173.77 C58.40,173.92 49.06,173.73 48.69,173.35 ZM 104.91 148.21 C104.77,147.40 104.19,146.52 103.20,145.81 C104.20,146.53 104.78,147.41 104.91,148.21 ZM 51.26 62.19 C51.86,61.36 52.57,60.60 53.41,59.69 C52.56,60.61 51.84,61.38 51.23,62.23 C50.88,62.73 50.56,63.26 50.28,63.86 C50.57,63.24 50.89,62.70 51.26,62.19 Z" fill="rgb(204,64,72)"/>
<path d="M 58.82 227.04 C55.08,225.88 52.03,223.59 49.86,220.31 C49.04,219.06 48.57,217.79 48.32,214.82 L 51.04 219.06 C53.49,222.88 54.95,224.06 58.54,225.12 C60.99,225.84 63.00,226.81 63.00,227.26 C63.00,227.26 63.01,227.27 63.02,227.27 C60.55,227.20 59.09,227.12 58.82,227.04 ZM 223.86 223.33 C224.25,222.90 224.50,222.36 224.51,221.89 C224.55,219.50 227.35,213.00 228.36,213.00 C228.73,213.00 228.85,209.14 228.80,204.18 C229.10,214.12 228.79,215.23 226.84,218.94 C225.91,220.71 224.74,222.40 223.86,223.33 ZM 137.44 182.00 C179.99,182.00 208.62,182.19 220.82,182.55 C208.29,182.20 178.70,182.00 137.44,182.00 ZM 223.00 224.03 C222.18,224.39 220.38,225.32 219.00,226.09 C220.38,225.32 222.17,224.37 222.99,223.99 C223.23,223.88 223.45,223.72 223.65,223.54 C223.40,223.78 223.18,223.95 223.00,224.03 ZM 227.53 183.08 C227.52,183.04 227.50,183.01 227.48,182.98 C227.49,182.98 227.49,182.98 227.49,182.98 C227.50,183.01 227.52,183.04 227.53,183.08 Z" fill="rgb(216,176,81)"/>
<path d="M 92.47 121.00 C92.49,121.00 92.50,121.00 92.52,121.00 C89.50,122.20 89.43,123.52 91.87,129.17 C93.84,133.72 98.89,139.53 104.36,143.86 C102.49,142.46 100.80,141.00 99.75,139.85 C97.69,137.59 96.00,136.10 96.00,136.53 C96.00,137.69 101.13,144.30 103.20,145.81 C104.20,146.53 104.78,147.41 104.91,148.21 C105.06,149.06 104.69,149.82 103.80,150.24 C101.71,150.15 99.73,150.02 98.10,149.88 C97.86,149.83 97.64,149.77 97.42,149.72 C94.68,149.08 92.96,148.68 91.87,149.03 L 90.06 148.75 L 90.04 149.82 C88.63,151.03 88.50,154.06 88.49,160.40 C88.49,166.58 88.05,170.23 87.18,171.28 C86.09,172.59 83.39,172.83 70.69,172.72 C62.34,172.65 54.38,172.43 53.00,172.23 C52.15,172.10 51.44,172.01 50.85,171.70 C49.17,170.80 48.48,168.02 48.19,157.07 C48.07,147.63 48.00,134.88 48.00,120.96 L 48.00 119.67 C48.00,78.78 48.00,68.77 50.28,63.86 C50.56,63.26 50.88,62.73 51.23,62.23 C51.84,61.38 52.56,60.61 53.41,59.69 C54.84,58.15 56.02,57.03 57.76,56.21 C60.76,54.80 65.44,54.28 75.97,54.02 C77.33,54.00 78.78,54.00 80.34,54.00 C100.55,54.00 104.00,54.46 104.00,57.12 C104.00,57.18 104.00,57.23 104.00,57.29 C104.00,58.04 104.00,58.53 104.24,58.73 C104.53,58.97 105.20,58.76 106.68,58.05 C103.47,59.80 100.51,61.91 98.62,63.99 C93.21,69.98 88.06,81.09 90.75,80.96 C91.16,80.95 92.62,80.29 94.00,79.50 C94.98,78.94 96.94,78.45 98.95,78.20 C94.01,78.94 89.24,81.63 87.58,84.85 C86.78,86.40 84.40,88.96 82.31,90.53 C76.45,94.92 74.19,97.66 73.05,101.75 C70.19,112.06 73.75,118.53 84.25,122.08 C88.74,123.61 89.61,123.66 90.30,122.43 C90.74,121.64 91.72,121.00 92.47,121.00 ZM 65.77 171.05 C73.87,171.39 81.50,171.74 82.71,171.83 C85.97,172.08 87.30,168.73 86.76,161.61 C86.29,155.44 88.09,146.68 90.08,145.45 C90.64,145.10 92.66,145.56 94.56,146.46 C100.21,149.14 100.36,147.36 95.13,139.68 C92.44,135.73 89.96,131.29 89.62,129.82 C88.70,125.87 86.53,124.20 81.29,123.42 C77.71,122.88 75.79,121.86 73.21,119.13 C70.31,116.05 69.83,114.83 69.80,110.52 C69.73,100.27 73.58,92.89 81.60,87.94 C85.11,85.77 88.00,80.60 88.00,76.50 C88.00,75.26 88.65,73.71 89.44,73.05 C90.23,72.40 91.15,70.57 91.50,69.00 C91.85,67.43 92.82,65.56 93.67,64.86 C94.52,64.16 95.60,62.55 96.08,61.29 C96.59,59.94 97.78,59.00 98.98,59.00 C101.14,59.00 101.87,56.08 99.75,55.88 C99.06,55.82 90.40,55.87 80.50,55.99 C65.25,56.18 61.96,56.49 58.88,58.06 C55.29,59.89 54.00,61.66 54.00,64.75 C54.00,65.63 53.30,67.12 52.43,68.07 C51.06,69.59 50.88,75.53 50.92,117.00 C50.95,148.89 50.62,164.84 49.89,166.20 C48.01,169.72 50.23,170.40 65.77,171.05 ZM 129.25 56.91 C130.56,57.70 131.92,58.65 133.26,59.71 C129.89,57.21 126.25,55.34 122.89,54.50 C125.02,54.93 127.13,55.73 129.25,56.91 ZM 137.17 141.73 C134.46,143.89 131.44,145.78 128.22,147.29 C127.21,147.77 126.33,148.17 125.53,148.51 C124.48,148.91 123.43,149.25 122.36,149.54 C124.13,148.98 126.18,148.13 128.72,146.97 C136.12,143.59 142.62,137.59 146.83,130.73 C144.32,134.83 141.01,138.60 137.17,141.73 ZM 96.17 119.03 C98.21,117.29 100.44,114.60 102.06,111.78 C100.26,115.05 98.35,117.41 96.17,119.03 ZM 113.22 149.28 C114.75,149.93 116.13,150.28 117.57,150.32 C117.15,150.35 116.72,150.36 116.25,150.38 C115.37,150.23 114.45,149.88 113.22,149.28 ZM 109.58 56.62 L 109.81 56.50 C111.86,55.47 113.90,54.78 115.93,54.41 C113.96,54.86 111.77,55.63 109.58,56.62 ZM 105.57 78.46 C106.91,78.91 107.97,79.77 109.60,81.40 C107.99,79.79 106.90,78.92 105.57,78.46 Z" fill="rgb(215,59,68)"/>
<path d="M 65.77 171.05 C50.23,170.40 48.01,169.72 49.89,166.20 C50.62,164.84 50.95,148.89 50.92,117.00 C50.88,75.53 51.06,69.59 52.43,68.07 C53.30,67.12 54.00,65.63 54.00,64.75 C54.00,61.66 55.29,59.89 58.88,58.06 C61.96,56.49 65.25,56.18 80.50,55.99 C90.40,55.87 99.06,55.82 99.75,55.88 C101.87,56.08 101.14,59.00 98.98,59.00 C97.78,59.00 96.59,59.94 96.08,61.29 C95.60,62.55 94.52,64.16 93.67,64.86 C92.82,65.56 91.85,67.43 91.50,69.00 C91.15,70.57 90.23,72.40 89.44,73.05 C88.65,73.71 88.00,75.26 88.00,76.50 C88.00,80.60 85.11,85.77 81.60,87.94 C73.58,92.89 69.73,100.27 69.80,110.52 C69.83,114.83 70.31,116.05 73.21,119.13 C75.79,121.86 77.71,122.88 81.29,123.42 C86.53,124.20 88.70,125.87 89.62,129.82 C89.96,131.29 92.44,135.73 95.13,139.68 C100.36,147.36 100.21,149.14 94.56,146.46 C92.66,145.56 90.64,145.10 90.08,145.45 C88.09,146.68 86.29,155.44 86.76,161.61 C87.30,168.73 85.97,172.08 82.71,171.83 C81.50,171.74 73.87,171.39 65.77,171.05 Z" fill="rgb(225,56,64)"/>
<path d="M 223.86 223.33 C223.79,223.41 223.72,223.48 223.65,223.54 C223.45,223.72 223.23,223.88 222.99,223.99 C222.17,224.37 220.38,225.32 219.00,226.09 C216.92,227.26 203.47,227.53 139.00,227.68 C104.26,227.77 73.87,227.59 63.02,227.27 C63.01,227.27 63.00,227.26 63.00,227.26 C63.00,226.81 60.99,225.84 58.54,225.12 C54.95,224.06 53.49,222.88 51.04,219.06 L 48.32 214.82 C48.07,211.93 48.01,207.43 48.01,199.75 L 48.00 182.00 L 137.44 182.00 C179.99,182.00 208.62,182.19 220.82,182.55 C225.07,182.67 227.32,182.81 227.48,182.98 C227.50,183.01 227.52,183.04 227.53,183.08 C227.87,184.13 228.35,191.18 228.64,199.23 C228.70,201.09 228.76,202.73 228.80,204.18 C228.85,209.14 228.73,213.00 228.36,213.00 C227.35,213.00 224.55,219.50 224.51,221.89 C224.50,222.36 224.25,222.90 223.86,223.33 Z" fill="rgb(238,179,38)"/>
<path d="M 0.00 150.00 L 0.00 0.00 L 600.00 0.00 L 1200.00 0.00 L 1200.00 150.00 L 1200.00 300.00 L 600.00 300.00 L 0.00 300.00 L 0.00 150.00 ZM 205.00 259.26 C207.62,257.96 215.35,251.27 223.50,243.26 C235.30,231.65 237.76,228.70 239.18,224.49 C241.57,217.36 242.06,192.94 241.20,122.50 C240.50,65.21 240.42,63.37 238.35,58.88 C235.30,52.25 229.68,46.48 223.16,43.28 L 217.50 40.50 L 143.02 40.21 C67.54,39.91 59.65,40.21 52.31,43.62 C48.11,45.57 21.03,71.59 17.87,76.71 C16.78,78.48 15.44,81.41 14.90,83.21 C13.86,86.73 13.57,236.50 14.60,239.70 C14.93,240.69 15.64,242.72 16.20,244.21 C16.75,245.70 17.13,247.20 17.04,247.55 C16.94,247.90 17.68,248.78 18.68,249.51 C19.68,250.24 20.50,251.42 20.50,252.14 C20.50,252.86 21.44,253.91 22.58,254.48 C23.72,255.05 25.44,256.30 26.40,257.26 C27.36,258.22 28.92,259.00 29.87,259.00 C30.82,259.00 32.03,259.41 32.55,259.90 C33.07,260.40 34.40,261.03 35.50,261.30 C36.60,261.56 74.18,261.72 119.00,261.64 L 200.50 261.50 L 205.00 259.26 ZM 109.50 147.38 C102.32,143.27 94.45,135.14 91.87,129.17 C89.37,123.38 89.50,122.14 92.75,120.91 C96.77,119.39 99.86,116.16 102.73,110.50 C104.13,107.75 107.01,103.06 109.13,100.09 C112.37,95.56 113.00,93.87 113.00,89.74 C113.00,85.46 112.55,84.35 109.60,81.40 C106.65,78.45 105.56,78.00 101.35,78.04 C98.68,78.05 95.38,78.71 94.00,79.50 C92.62,80.29 91.16,80.95 90.75,80.96 C88.06,81.09 93.21,69.98 98.62,63.99 C103.07,59.07 113.50,54.00 119.19,54.00 C127.40,54.00 139.13,62.46 143.91,71.82 C146.68,77.25 146.59,77.67 142.54,78.43 C138.03,79.27 135.00,83.15 135.00,88.09 C135.00,93.70 136.63,96.42 143.01,101.43 C150.09,106.99 152.47,111.54 151.61,117.90 C150.06,129.49 140.54,141.58 128.72,146.97 C119.12,151.35 116.53,151.41 109.50,147.38 ZM 124.09 136.45 C127.70,134.58 130.99,129.51 131.00,125.79 C131.00,123.98 131.76,122.68 133.25,121.91 C139.33,118.77 142.37,112.12 138.42,110.61 C135.79,109.60 120.00,109.93 117.93,111.04 C115.12,112.54 115.48,116.55 118.62,118.70 C124.41,122.67 126.02,124.77 125.15,127.19 C124.70,128.46 122.84,130.26 121.01,131.20 C118.01,132.74 117.35,132.76 114.11,131.40 C112.14,130.58 110.21,129.36 109.83,128.70 C107.74,125.08 106.33,123.94 104.72,124.55 C102.60,125.37 102.54,127.21 104.52,131.04 C107.58,136.95 117.71,139.75 124.09,136.45 ZM 97.75 98.92 C95.40,97.55 95.51,93.33 97.93,92.04 C101.98,89.87 105.08,94.02 102.33,97.94 C100.70,100.26 100.23,100.36 97.75,98.92 Z" fill="rgb(254,254,254)"/>
</g>
</svg>